<svg width="38" height="64" viewBox="0 0 38 64" fill="none" xmlns="http://www.w3.org/2000/svg">
<path d="M31.1841 0.554688H6.81641C3.19204 0.554688 0.253906 3.49282 0.253906 7.11719V56.8828C0.253906 60.5072 3.19204 63.4453 6.81641 63.4453H31.1841C34.8084 63.4453 37.7466 60.5072 37.7466 56.8828V7.11719C37.7466 3.49282 34.8084 0.554688 31.1841 0.554688Z" fill="#FD637B"/>
<path d="M3.53418 7.11719H34.4654V28.8883H3.53418V7.11719Z" fill="#EAEAF0"/>
<path d="M31.1846 20.1509C30.9307 20.1509 30.6873 20.05 30.5078 19.8706C30.3284 19.6911 30.2275 19.4476 30.2275 19.1938V15.0469C30.2275 14.7931 30.3284 14.5496 30.5078 14.3702C30.6873 14.1907 30.9307 14.0898 31.1846 14.0898C31.4384 14.0898 31.6818 14.1907 31.8613 14.3702C32.0408 14.5496 32.1416 14.7931 32.1416 15.0469V19.1938C32.1416 19.4476 32.0408 19.6911 31.8613 19.8706C31.6818 20.05 31.4384 20.1509 31.1846 20.1509Z" fill="#D5D5DB"/>
<path d="M25.9615 18.0055C25.9599 19.3192 25.5867 20.6057 24.8849 21.7162C24.183 22.8268 23.1813 23.7161 21.9954 24.2814C20.8096 24.8466 19.4879 25.0649 18.1833 24.9108C16.8786 24.7567 15.6442 24.2366 14.6226 23.4106C13.6011 22.5846 12.8341 21.4864 12.4103 20.2429C11.9865 18.9994 11.9232 17.6614 12.2277 16.3835C12.5322 15.1055 13.1921 13.9398 14.1311 13.0211C15.0701 12.1023 16.2499 11.468 17.5342 11.1914C18.0162 11.0901 18.5073 11.0388 18.9998 11.0383C19.5962 11.0361 20.1902 11.1133 20.7662 11.268C22.2556 11.6579 23.5736 12.5308 24.5137 13.75C25.4539 14.9693 25.9631 16.4659 25.9615 18.0055Z" fill="#FFD5C8"/>
<path d="M21.302 12.9086C21.3013 13.5582 21.0429 14.1809 20.5836 14.6402C20.1243 15.0995 19.5016 15.3579 18.852 15.3586C18.2897 15.3599 17.7495 15.1399 17.3481 14.7461C17.2556 14.6591 17.1813 14.5546 17.1296 14.4386C17.0779 14.3226 17.0499 14.1975 17.0471 14.0705C17.0443 13.9435 17.0669 13.8173 17.1135 13.6991C17.1602 13.581 17.2298 13.4734 17.3185 13.3825C17.4073 13.2916 17.5132 13.2193 17.6302 13.1698C17.7471 13.1204 17.8728 13.0947 17.9998 13.0944C18.1268 13.0941 18.2526 13.1191 18.3698 13.1679C18.487 13.2168 18.5933 13.2885 18.6825 13.3789C18.7049 13.4007 18.7314 13.4177 18.7606 13.429C18.7897 13.4403 18.8208 13.4455 18.852 13.4445C18.9941 13.4442 19.1302 13.3877 19.2307 13.2872C19.3311 13.1868 19.3877 13.0506 19.388 12.9086C19.3875 12.6665 19.2912 12.4345 19.12 12.2633C18.9488 12.0921 18.7168 11.9957 18.4747 11.9953C18.2479 11.9952 18.0285 11.9142 17.8561 11.7669C17.6837 11.6195 17.5695 11.4154 17.5341 11.1914C18.016 11.0901 18.5072 11.0388 18.9997 11.0383C19.5961 11.0361 20.1901 11.1133 20.7661 11.268C21.1159 11.7433 21.3038 12.3184 21.302 12.9086Z" fill="#E8B5AD"/>
<path d="M19.0003 23.1986C18.3519 23.2249 17.7123 23.0416 17.1763 22.6759C16.6402 22.3101 16.2362 21.7814 16.0243 21.168C15.9517 20.9247 15.9788 20.6626 16.0996 20.4393C16.2204 20.216 16.4249 20.0498 16.6682 19.9772C16.9115 19.9047 17.1737 19.9318 17.397 20.0526C17.6203 20.1733 17.7865 20.3779 17.859 20.6212C18.0149 21.1445 18.6498 21.284 19.0003 21.284C19.3509 21.284 19.9847 21.1445 20.1428 20.6206C20.1787 20.5002 20.2379 20.3881 20.3172 20.2906C20.3964 20.1931 20.4941 20.1122 20.6047 20.0524C20.7152 19.9927 20.8364 19.9553 20.9614 19.9424C21.0863 19.9295 21.2126 19.9413 21.333 19.9772C21.4534 20.0131 21.5656 20.0724 21.6631 20.1517C21.7606 20.2309 21.8415 20.3286 21.9013 20.4391C21.961 20.5496 21.9984 20.6709 22.0113 20.7958C22.0242 20.9208 22.0123 21.0471 21.9764 21.1675C21.7646 21.7809 21.3606 22.3098 20.8246 22.6756C20.2885 23.0415 19.6488 23.2249 19.0003 23.1986Z" fill="#E8B5AD"/>
<path d="M22.7078 18.3063C22.5389 18.3065 22.373 18.262 22.2268 18.1773C22.0807 18.0926 21.9597 17.9706 21.876 17.8239C21.8005 17.6916 21.777 17.6916 21.678 17.6916C21.5791 17.6916 21.555 17.6916 21.4795 17.8239C21.3525 18.0422 21.1444 18.2014 20.9006 18.2669C20.6567 18.3324 20.3969 18.2988 20.1776 18.1736C19.9584 18.0483 19.7975 17.8415 19.7301 17.5982C19.6626 17.3549 19.6941 17.0948 19.8176 16.8745C20.0015 16.5426 20.2709 16.2659 20.5979 16.0733C20.9249 15.8806 21.2974 15.779 21.6769 15.779C22.0564 15.779 22.429 15.8806 22.756 16.0733C23.083 16.2659 23.3524 16.5426 23.5363 16.8745C23.6194 17.02 23.6629 17.1848 23.6623 17.3523C23.6618 17.5199 23.6173 17.6843 23.5332 17.8293C23.4492 17.9742 23.3286 18.0946 23.1834 18.1783C23.0383 18.262 22.8737 18.3061 22.7062 18.3063H22.7078Z" fill="#E8B5AD"/>
<path d="M17.3527 18.3063C17.1838 18.3064 17.0179 18.2618 16.8718 18.1771C16.7258 18.0924 16.6047 17.9705 16.5209 17.8239C16.4455 17.6916 16.4219 17.6916 16.323 17.6916C16.224 17.6916 16.2005 17.6916 16.125 17.8239C15.9991 18.0446 15.7907 18.2062 15.5456 18.2732C15.3006 18.3403 15.0389 18.3072 14.8182 18.1813C14.5975 18.0554 14.4359 17.847 14.3689 17.6019C14.3019 17.3569 14.3349 17.0952 14.4608 16.8745C14.6446 16.5424 14.914 16.2656 15.241 16.0729C15.568 15.8801 15.9406 15.7785 16.3202 15.7785C16.6998 15.7785 17.0724 15.8801 17.3994 16.0729C17.7264 16.2656 17.9958 16.5424 18.1796 16.8745C18.2627 17.02 18.3062 17.1848 18.3056 17.3523C18.3051 17.5199 18.2605 17.6843 18.1765 17.8293C18.0925 17.9742 17.9718 18.0946 17.8267 18.1783C17.6816 18.262 17.517 18.3061 17.3494 18.3063H17.3527Z" fill="#E8B5AD"/>
<path d="M20.6406 34.0962H17.3594C16.4533 34.0962 15.7188 34.8307 15.7188 35.7368V39.0181C15.7188 39.9241 16.4533 40.6587 17.3594 40.6587H20.6406C21.5467 40.6587 22.2812 39.9241 22.2812 39.0181V35.7368C22.2812 34.8307 21.5467 34.0962 20.6406 34.0962Z" fill="#DA506A"/>
<path d="M9.5498 44.9106H7.90918C7.00309 44.9106 6.26855 45.6452 6.26855 46.5513V48.1919C6.26855 49.098 7.00309 49.8325 7.90918 49.8325H9.5498C10.4559 49.8325 11.1904 49.098 11.1904 48.1919V46.5513C11.1904 45.6452 10.4559 44.9106 9.5498 44.9106Z" fill="#DA506A"/>
<path d="M19.8203 44.9106H18.1797C17.2736 44.9106 16.5391 45.6452 16.5391 46.5513V48.1919C16.5391 49.098 17.2736 49.8325 18.1797 49.8325H19.8203C20.7264 49.8325 21.4609 49.098 21.4609 48.1919V46.5513C21.4609 45.6452 20.7264 44.9106 19.8203 44.9106Z" fill="#DA506A"/>
<path d="M30.0908 44.9106H28.4502C27.5441 44.9106 26.8096 45.6452 26.8096 46.5513V48.1919C26.8096 49.098 27.5441 49.8325 28.4502 49.8325H30.0908C30.9969 49.8325 31.7314 49.098 31.7314 48.1919V46.5513C31.7314 45.6452 30.9969 44.9106 30.0908 44.9106Z" fill="#DA506A"/>
<path d="M9.5498 53.2226H7.90918C7.00309 53.2226 6.26855 53.9571 6.26855 54.8632V56.5038C6.26855 57.4099 7.00309 58.1445 7.90918 58.1445H9.5498C10.4559 58.1445 11.1904 57.4099 11.1904 56.5038V54.8632C11.1904 53.9571 10.4559 53.2226 9.5498 53.2226Z" fill="#DA506A"/>
<path d="M19.8203 53.2226H18.1797C17.2736 53.2226 16.5391 53.9571 16.5391 54.8632V56.5038C16.5391 57.4099 17.2736 58.1445 18.1797 58.1445H19.8203C20.7264 58.1445 21.4609 57.4099 21.4609 56.5038V54.8632C21.4609 53.9571 20.7264 53.2226 19.8203 53.2226Z" fill="#DA506A"/>
<path d="M30.0908 53.2226H28.4502C27.5441 53.2226 26.8096 53.9571 26.8096 54.8632V56.5038C26.8096 57.4099 27.5441 58.1445 28.4502 58.1445H30.0908C30.9969 58.1445 31.7314 57.4099 31.7314 56.5038V54.8632C31.7314 53.9571 30.9969 53.2226 30.0908 53.2226Z" fill="#DA506A"/>
<path d="M9.5498 35.7368H5.1748C4.26871 35.7368 3.53418 36.4713 3.53418 37.3774C3.53418 38.2835 4.26871 39.0181 5.1748 39.0181H9.5498C10.4559 39.0181 11.1904 38.2835 11.1904 37.3774C11.1904 36.4713 10.4559 35.7368 9.5498 35.7368Z" fill="#DA506A"/>
<path d="M28.4492 39.0186H32.8242C33.7303 39.0186 34.4648 38.2841 34.4648 37.378C34.4648 36.4719 33.7303 35.7374 32.8242 35.7374H28.4492C27.5431 35.7374 26.8086 36.4719 26.8086 37.378C26.8086 38.2841 27.5431 39.0186 28.4492 39.0186Z" fill="#DA506A"/>
</svg>
