<svg width="70" height="70" viewBox="0 0 70 70" fill="none" xmlns="http://www.w3.org/2000/svg">
<path d="M36.649 55.8918C36.2584 55.8918 35.8671 55.7806 35.5254 55.5565L1.06758 32.9833C0.488031 32.6036 0.139398 31.957 0.140628 31.2642C0.141859 30.5713 0.492816 29.926 1.07373 29.5483L33.8821 8.22021C34.5618 7.77847 35.438 7.77847 36.1176 8.22021L68.926 29.5483C69.4926 29.9167 69.8413 30.5404 69.8584 31.2159C69.8755 31.8914 69.5587 32.532 69.0115 32.9284L37.8523 55.5018C37.4941 55.7613 37.0719 55.8918 36.649 55.8918Z" fill="#FDBF00"/>
<path d="M69.8585 31.216C69.8414 30.5405 69.4926 29.9168 68.9261 29.5485L36.1177 8.22035C35.7779 7.99942 35.389 7.88895 35 7.88895V55.2121L35.5255 55.5564C35.8673 55.7803 36.2586 55.8917 36.6492 55.8917C37.072 55.8917 37.4943 55.7612 37.8524 55.5017L69.0117 32.9287C69.5588 32.5322 69.8756 31.8916 69.8585 31.216Z" fill="#FF8856"/>
<path d="M57.4219 58.5156H12.5781C11.4455 58.5156 10.5273 57.5974 10.5273 56.4648V2.05078C10.5273 0.918203 11.4455 0 12.5781 0H57.4219C58.5545 0 59.4727 0.918203 59.4727 2.05078V56.4648C59.4727 57.5974 58.5545 58.5156 57.4219 58.5156Z" fill="#FFF4F4"/>
<path d="M57.4219 0H35V58.5156H57.4219C58.5545 58.5156 59.4727 57.5974 59.4727 56.4648V2.05078C59.4727 0.918203 58.5545 0 57.4219 0Z" fill="#F6EFEA"/>
<path d="M67.9492 70H2.05078C0.918203 70 0 69.0818 0 67.9492V31.3996C0 30.644 0.415488 29.9496 1.08145 29.5925C1.74713 29.2353 2.55555 29.2733 3.18514 29.6912L35 50.8132L66.815 29.6911C67.4445 29.2731 68.253 29.2353 68.9187 29.5924C69.5846 29.9495 70.0001 30.6439 70.0001 31.3995V67.9492C70 69.0818 69.0818 70 67.9492 70Z" fill="#FFDE46"/>
<path d="M48.9453 12.3047H21.0547C19.9221 12.3047 19.0039 11.3865 19.0039 10.2539C19.0039 9.12133 19.9221 8.20312 21.0547 8.20312H48.9453C50.0779 8.20312 50.9961 9.12133 50.9961 10.2539C50.9961 11.3865 50.0779 12.3047 48.9453 12.3047Z" fill="#E86478"/>
<path d="M45.6641 20.5078H24.3359C23.2034 20.5078 22.2852 19.5896 22.2852 18.457C22.2852 17.3245 23.2034 16.4062 24.3359 16.4062H45.6641C46.7966 16.4062 47.7148 17.3245 47.7148 18.457C47.7148 19.5896 46.7966 20.5078 45.6641 20.5078Z" fill="#E86478"/>
<path d="M48.9453 28.7109H21.0547C19.9221 28.7109 19.0039 27.7927 19.0039 26.6602C19.0039 25.5276 19.9221 24.6094 21.0547 24.6094H48.9453C50.0779 24.6094 50.9961 25.5276 50.9961 26.6602C50.9961 27.7927 50.0779 28.7109 48.9453 28.7109Z" fill="#E86478"/>
<path d="M45.6641 36.9141H24.3359C23.2034 36.9141 22.2852 35.9959 22.2852 34.8633C22.2852 33.7307 23.2034 32.8125 24.3359 32.8125H45.6641C46.7966 32.8125 47.7148 33.7307 47.7148 34.8633C47.7148 35.9959 46.7966 36.9141 45.6641 36.9141Z" fill="#E86478"/>
<path d="M48.9453 8.20312H35V12.3047H48.9453C50.0779 12.3047 50.9961 11.3865 50.9961 10.2539C50.9961 9.12133 50.0779 8.20312 48.9453 8.20312Z" fill="#C55566"/>
<path d="M45.6641 16.4062H35V20.5078H45.6641C46.7966 20.5078 47.7148 19.5896 47.7148 18.457C47.7148 17.3245 46.7966 16.4062 45.6641 16.4062Z" fill="#C55566"/>
<path d="M48.9453 24.6094H35V28.7109H48.9453C50.0779 28.7109 50.9961 27.7927 50.9961 26.6602C50.9961 25.5276 50.0779 24.6094 48.9453 24.6094Z" fill="#C55566"/>
<path d="M45.6641 32.8125H35V36.9141H45.6641C46.7966 36.9141 47.7148 35.9959 47.7148 34.8633C47.7148 33.7307 46.7966 32.8125 45.6641 32.8125Z" fill="#C55566"/>
<path d="M68.9186 29.5925C68.2529 29.2353 67.4445 29.2733 66.8149 29.6912L35 50.8132V70H67.9492C69.0818 70 70 69.0818 70 67.9492V31.3997C70 30.644 69.5845 29.9496 68.9186 29.5925Z" fill="#FFCD00"/>
</svg>
