<svg width="70" height="70" viewBox="0 0 70 70" fill="none" xmlns="http://www.w3.org/2000/svg">
<path d="M57.835 38.5763H30.7744V23.3326H55.662C56.8621 23.3326 57.835 24.3054 57.835 25.5056V38.5763Z" fill="#E86478"/>
<path d="M59.4746 38.5763H3.621C1.62121 38.5763 0 40.1975 0 42.1973V50.6507C0 52.6505 1.62121 54.2717 3.621 54.2717H66.6289C69.405 54.2717 70.9868 51.0997 69.3167 48.8824L62.8055 40.2377C62.0175 39.1914 60.7841 38.5763 59.4746 38.5763Z" fill="#F8CA4F"/>
<path opacity="0.1" d="M5.57881 50.6506V42.1972C5.57881 40.1974 7.20002 38.5762 9.19981 38.5762H3.621C1.62121 38.5763 0 40.1974 0 42.1973V50.6507C0 52.6505 1.62121 54.2717 3.621 54.2717H9.19981C7.20002 54.2716 5.57881 52.6504 5.57881 50.6506Z" fill="black"/>
<path d="M17.3292 65.1967C23.3629 65.1967 28.2541 60.3054 28.2541 54.2717C28.2541 48.2381 23.3629 43.3468 17.3292 43.3468C11.2956 43.3468 6.4043 48.2381 6.4043 54.2717C6.4043 60.3054 11.2956 65.1967 17.3292 65.1967Z" fill="#E86478"/>
<path opacity="0.15" d="M17.3291 59.0637C19.9756 59.0637 22.1211 56.9183 22.1211 54.2717C22.1211 51.6252 19.9756 49.4797 17.3291 49.4797C14.6826 49.4797 12.5371 51.6252 12.5371 54.2717C12.5371 56.9183 14.6826 59.0637 17.3291 59.0637Z" fill="black"/>
<path d="M49.3741 65.1967C55.4078 65.1967 60.2991 60.3054 60.2991 54.2717C60.2991 48.2381 55.4078 43.3468 49.3741 43.3468C43.3405 43.3468 38.4492 48.2381 38.4492 54.2717C38.4492 60.3054 43.3405 65.1967 49.3741 65.1967Z" fill="#E86478"/>
<path opacity="0.15" d="M49.374 59.0637C52.0206 59.0637 54.166 56.9183 54.166 54.2717C54.166 51.6252 52.0206 49.4797 49.374 49.4797C46.7275 49.4797 44.582 51.6252 44.582 54.2717C44.582 56.9183 46.7275 59.0637 49.374 59.0637Z" fill="black"/>
<path d="M30.775 13.8208H5.5791V38.5764H30.775V13.8208Z" fill="#61C6AD"/>
<path opacity="0.1" d="M30.775 13.8208H5.5791V18.018H30.775V13.8208Z" fill="black"/>
<path d="M32.4559 4.8032H3.89725C2.45309 4.8032 1.28223 5.97392 1.28223 7.41822V11.2056C1.28223 12.6498 2.45295 13.8206 3.89725 13.8206H32.4559C33.9 13.8206 35.0709 12.6499 35.0709 11.2056V7.41822C35.0709 5.97392 33.9002 4.8032 32.4559 4.8032Z" fill="#92D2E7"/>
<path opacity="0.1" d="M5.95391 11.2055V7.41822C5.95391 5.97406 7.12463 4.8032 8.56893 4.8032H3.89725C2.45309 4.8032 1.28223 5.97392 1.28223 7.41822V11.2055C1.28223 12.6496 2.45295 13.8205 3.89725 13.8205H8.56879C7.12463 13.8205 5.95391 12.6498 5.95391 11.2055Z" fill="black"/>
<path d="M53.8168 14.112H43.5771V23.3337H53.8168V14.112Z" fill="#F8CA4F"/>
<path opacity="0.1" d="M53.8168 14.112H43.5771V17.2838H53.8168V14.112Z" fill="black"/>
<path d="M54.7562 14.1113H42.6407C41.7303 14.1113 40.9922 13.3731 40.9922 12.4627V9.30645C40.9922 8.3959 41.7303 7.65789 42.6407 7.65789H54.7562C55.6668 7.65789 56.4048 8.39603 56.4048 9.30645V12.4627C56.4048 13.3733 55.6668 14.1113 54.7562 14.1113Z" fill="#92D2E7"/>
<path opacity="0.1" d="M44.304 12.4627V9.30645C44.304 8.3959 45.0421 7.65789 45.9526 7.65789H42.6398C41.7292 7.65789 40.9912 8.39603 40.9912 9.30645V12.4627C40.9912 13.3733 41.7292 14.1113 42.6398 14.1113H45.9526C45.0421 14.1113 44.304 13.3733 44.304 12.4627Z" fill="black"/>
<path d="M18.1771 31.4848C21.5229 31.4848 24.2352 28.7726 24.2352 25.4268C24.2352 22.0811 21.5229 19.3688 18.1771 19.3688C14.8314 19.3688 12.1191 22.0811 12.1191 25.4268C12.1191 28.7726 14.8314 31.4848 18.1771 31.4848Z" fill="white"/>
<path opacity="0.1" d="M35.3988 23.3323H30.7734V38.5764H35.3988V23.3323Z" fill="black"/>
</svg>
