<svg width="70" height="70" viewBox="0 0 70 70" fill="none" xmlns="http://www.w3.org/2000/svg">
<path d="M65.1724 10.8621V19.3103H0V10.8621C0 8.19586 2.16138 6.03448 4.82759 6.03448H60.3448C63.011 6.03448 65.1724 8.19586 65.1724 10.8621Z" fill="#C03A2B"/>
<path d="M62.7583 10.8621V19.3103H2.41347V10.8621C2.31759 8.29736 4.3146 6.13843 6.87899 6.03448H58.2928C60.8572 6.13843 62.8542 8.29736 62.7583 10.8621Z" fill="#E64C3C"/>
<path d="M65.1724 19.3103V28.0121L43.4483 65.1724H4.82759C2.16138 65.1724 0 63.011 0 60.3448V19.3103H65.1724Z" fill="#E4C05C"/>
<path d="M62.7583 19.3103V28.0121L42.643 65.1724H6.87899C4.3146 65.0685 2.31759 62.9095 2.41347 60.3448V19.3103H62.7583Z" fill="#F9EAB0"/>
<path d="M13.276 0H10.8622C10.1956 0 9.65527 0.540346 9.65527 1.2069V10.8621C9.65527 11.5286 10.1956 12.069 10.8622 12.069H13.276C13.9425 12.069 14.4829 11.5286 14.4829 10.8621V1.2069C14.4829 0.540346 13.9425 0 13.276 0Z" fill="#A5A5A4"/>
<path d="M33.7935 0H31.3797C30.7132 0 30.1729 0.540346 30.1729 1.2069V10.8621C30.1729 11.5286 30.7132 12.069 31.3797 12.069H33.7935C34.4601 12.069 35.0004 11.5286 35.0004 10.8621V1.2069C35.0004 0.540346 34.4601 0 33.7935 0Z" fill="#A5A5A4"/>
<path d="M54.3101 0H51.8964C51.2298 0 50.6895 0.540346 50.6895 1.2069V10.8621C50.6895 11.5286 51.2298 12.069 51.8964 12.069H54.3101C54.9767 12.069 55.517 11.5286 55.517 10.8621V1.2069C55.517 0.540346 54.9767 0 54.3101 0Z" fill="#A5A5A4"/>
<path d="M13.276 2.41379H10.8622C10.1956 2.41379 9.65527 2.95413 9.65527 3.62068V8.44827C9.65527 9.11482 10.1956 9.65517 10.8622 9.65517H13.276C13.9425 9.65517 14.4829 9.11482 14.4829 8.44827V3.62068C14.4829 2.95413 13.9425 2.41379 13.276 2.41379Z" fill="#BDC3C7"/>
<path d="M33.7935 2.41379H31.3797C30.7132 2.41379 30.1729 2.95413 30.1729 3.62068V8.44827C30.1729 9.11482 30.7132 9.65517 31.3797 9.65517H33.7935C34.4601 9.65517 35.0004 9.11482 35.0004 8.44827V3.62068C35.0004 2.95413 34.4601 2.41379 33.7935 2.41379Z" fill="#BDC3C7"/>
<path d="M54.3101 2.41379H51.8964C51.2298 2.41379 50.6895 2.95413 50.6895 3.62068V8.44827C50.6895 9.11482 51.2298 9.65517 51.8964 9.65517H54.3101C54.9767 9.65517 55.517 9.11482 55.517 8.44827V3.62068C55.517 2.95413 54.9767 2.41379 54.3101 2.41379Z" fill="#BDC3C7"/>
<path d="M32.5859 48.2759H43.448V56.7241H32.5859V48.2759Z" fill="#F3D55B"/>
<path d="M70 38.6207V67.5862C69.9264 68.9827 68.742 70.0595 67.3448 70H46.1034C44.7062 70.0595 43.5218 68.9827 43.4482 67.5862V38.6207H70Z" fill="#2FA8CC"/>
<path d="M67.5861 38.6207V67.5862C67.6451 68.8499 66.6766 69.926 65.4137 70H48.0343C46.7714 69.926 45.8029 68.8499 45.8619 67.5862V38.6207H67.5861Z" fill="#67B9CC"/>
<path d="M43.4482 33.7931H70V38.6207H43.4482V33.7931Z" fill="#C03A2B"/>
<path d="M45.8623 33.7931H67.5864V38.6207H45.8623V33.7931Z" fill="#E64C3C"/>
<path d="M70 33.7931H43.4482C43.4482 30.7879 46.8155 28.2052 51.5948 27.119C52.2365 26.9746 52.792 26.5754 53.1334 26.0131C53.4748 25.4509 53.5729 24.774 53.4051 24.1379C52.4601 20.5329 53.8879 15.6897 56.7241 15.6897C59.0956 15.6897 61.1643 19.7931 60.0431 24.1379C59.8776 24.7773 59.9797 25.4564 60.3258 26.0189C60.672 26.5813 61.2322 26.9785 61.8775 27.119C65.4934 27.9469 70 30.211 70 33.7931Z" fill="#90BAE1"/>
<path d="M67.5864 33.7931H45.8623C45.8623 30.7879 48.6176 28.2052 52.528 27.119C53.7109 26.6497 54.3496 25.364 54.0089 24.1379C53.8442 23.344 53.7633 22.535 53.7675 21.7241C53.7675 18.3931 55.0951 15.6897 56.7304 15.6897C59.0066 15.6897 60.2364 20.3965 59.4459 24.1379C59.1083 25.3696 59.7567 26.657 60.9473 27.119C64.2349 28.041 67.5864 30.4138 67.5864 33.7931Z" fill="#B0D3F0"/>
<path d="M65.1726 45.8621H55.5174C54.8509 45.8621 54.3105 45.3217 54.3105 44.6552C54.3105 43.9886 54.8509 43.4483 55.5174 43.4483H65.1726C65.8392 43.4483 66.3795 43.9886 66.3795 44.6552C66.3795 45.3217 65.8392 45.8621 65.1726 45.8621Z" fill="#2980BA"/>
<path d="M65.1726 51.8965H55.5174C54.8509 51.8965 54.3105 51.3562 54.3105 50.6897C54.3105 50.0231 54.8509 49.4828 55.5174 49.4828H65.1726C65.8392 49.4828 66.3795 50.0231 66.3795 50.6897C66.3795 51.3562 65.8392 51.8965 65.1726 51.8965Z" fill="#2980BA"/>
<path d="M65.1726 57.931H55.5174C54.8509 57.931 54.3105 57.3907 54.3105 56.7241C54.3105 56.0576 54.8509 55.5172 55.5174 55.5172H65.1726C65.8392 55.5172 66.3795 56.0576 66.3795 56.7241C66.3795 57.3907 65.8392 57.931 65.1726 57.931Z" fill="#2980BA"/>
<path d="M65.1726 63.9655H55.5174C54.8509 63.9655 54.3105 63.4252 54.3105 62.7586C54.3105 62.0921 54.8509 61.5517 55.5174 61.5517H65.1726C65.8392 61.5517 66.3795 62.0921 66.3795 62.7586C66.3795 63.4252 65.8392 63.9655 65.1726 63.9655Z" fill="#2980BA"/>
<path d="M62.7587 65.1724C62.0921 65.1724 61.5518 64.6321 61.5518 63.9655V43.4483C61.5518 42.7817 62.0921 42.2414 62.7587 42.2414C63.4252 42.2414 63.9655 42.7817 63.9655 43.4483V63.9655C63.9655 64.6321 63.4252 65.1724 62.7587 65.1724Z" fill="#2980BA"/>
<path d="M20.5173 48.2759V56.7241H12.0691C10.7376 56.7202 9.65925 55.6418 9.65527 54.3104V48.2759H20.5173Z" fill="#F3D55B"/>
<path d="M9.65527 39.8276H20.5173V48.2759H9.65527V39.8276Z" fill="#F5EFCA"/>
<path d="M32.5859 39.8276H43.448V48.2759H32.5859V39.8276Z" fill="#F5EFCA"/>
<path d="M20.5173 31.3793V39.8276H9.65527V33.7931C9.65925 32.4617 10.7376 31.3833 12.0691 31.3793H20.5173Z" fill="#F3D55B"/>
<path d="M20.5166 31.3793H32.5856V39.8276H20.5166V31.3793Z" fill="#F5EFCA"/>
<path d="M32.5859 31.3793H43.448V39.8276H32.5859V31.3793Z" fill="#F3D55B"/>
<path d="M20.5166 48.2759H32.5856V56.7241H20.5166V48.2759Z" fill="#F5EFCA"/>
<path d="M20.5166 39.8276H32.5856V48.2759H20.5166V39.8276Z" fill="#F3D55B"/>
</svg>
