<svg width="49" height="44" viewBox="0 0 49 44" fill="none" xmlns="http://www.w3.org/2000/svg">
<path d="M0.0664139 35.9984C0.211884 34.9752 0.53804 33.9852 1.02192 33.0752C1.0112 33.0118 0.997414 32.9575 0.989758 32.8911C0.959133 32.7115 0.934635 32.5153 0.910133 32.3101C0.902477 32.2074 0.876446 32.0958 0.899414 31.9962C0.928509 31.8966 0.991287 31.8045 1.01273 31.7004C1.26844 30.8794 1.63441 29.9286 2.21017 28.9718C2.78285 28.021 3.59441 27.0537 4.66782 26.3625L5.08126 26.118L5.5437 25.8886L5.91885 25.7317C6.12251 25.6532 6.21132 25.6336 6.36292 25.5792C6.90498 25.3906 7.46082 25.2457 8.00441 25.1416C8.54647 25.0359 9.08395 24.9665 9.59692 24.9439C10.0104 24.9137 10.3978 24.9273 10.776 24.9499L10.7209 24.879C10.583 24.6858 10.4743 24.4987 10.3503 24.3085L9.98891 23.7396L9.78832 23.3608C9.7332 23.2506 9.67348 23.1404 9.62295 23.0318C8.80066 21.257 8.34742 19.354 8.36885 17.371C8.39029 16.3825 8.53576 15.3562 8.98442 14.3602C9.39938 13.3672 10.2554 12.4149 11.3563 11.9471C12.4604 11.4883 13.6103 11.5019 14.6179 11.6709C15.6377 11.8475 16.5794 12.1719 17.4568 12.5734C18.3449 12.9612 19.1672 13.4306 19.9773 13.912L20.8286 14.4658C21.0507 12.6111 21.4365 10.7684 22.0552 8.97554C22.4686 7.79991 22.98 6.64842 23.6201 5.54976C24.2663 4.45713 25.0319 3.40827 26.0119 2.50429C26.9889 1.61691 28.1802 0.82611 29.6594 0.551444C30.3928 0.424676 31.1799 0.450331 31.921 0.661613C32.6713 0.865348 33.3236 1.28791 33.8672 1.76028C34.959 2.72915 35.5975 3.96968 36.0416 5.18454C36.4795 6.37979 36.7062 7.70332 36.7797 8.94535C36.9098 11.4596 36.5775 13.8939 36.1672 16.2844C35.9497 17.4811 35.5991 18.6432 35.2515 19.7992C34.8916 20.9537 34.518 22.0961 34.1076 23.2265C33.7493 24.2376 33.368 25.2367 32.9714 26.2282C34.3113 24.1214 35.5838 21.9799 36.749 19.7841C38.0521 17.3076 39.2388 14.7631 40.0887 12.1463L40.3903 11.1638L40.6461 10.1753C40.7931 9.5143 40.9248 8.8548 40.9952 8.19681C41.0718 7.5358 41.0993 6.88536 41.0626 6.25001C41.0656 5.92705 40.9814 5.63125 40.9508 5.31886C40.9049 5.03816 40.813 4.77858 40.7425 4.50995L40.5879 4.26849C40.522 4.1719 40.473 4.05117 40.3919 3.98477L40.1775 3.75236C40.104 3.67388 40.006 3.65728 39.9356 3.59088C39.8651 3.52448 39.7978 3.46109 39.7227 3.40676C39.6508 3.3479 39.5788 3.26943 39.4808 3.23623C39.3874 3.20152 39.3032 3.12455 39.1898 3.10644C39.0827 3.0838 38.9709 3.04155 38.8514 3.02646L38.4748 2.99476L38.0736 3.01589C37.7979 3.04457 37.5162 3.09135 37.2314 3.16832C36.9481 3.24377 36.6648 3.33885 36.3769 3.44449C36.0937 3.55466 35.8073 3.67539 35.5348 3.82329C35.9145 3.33281 36.3524 2.86498 36.8746 2.47561C37.1349 2.2749 37.4182 2.09833 37.7229 1.93383C37.8776 1.85988 38.0399 1.78442 38.2037 1.71651L38.7335 1.56107C38.9158 1.51881 39.1133 1.50674 39.3093 1.48259C39.5053 1.4509 39.712 1.48863 39.9187 1.49768C40.13 1.50221 40.3306 1.5656 40.5373 1.62747C40.7471 1.68331 40.9539 1.74971 41.1177 1.88403C41.2831 2.00476 41.4576 2.13605 41.5939 2.27792L41.989 2.71406C42.1344 2.85894 42.2095 3.01891 42.3151 3.17284L42.6045 3.64219L42.6413 3.70256L42.6597 3.76896C42.7653 4.15983 42.9016 4.55221 42.969 4.94761C43.0164 5.33848 43.1114 5.7384 43.1114 6.12475C43.1589 6.90498 43.1221 7.67465 43.0348 8.4247C42.9521 9.17625 42.8051 9.90819 42.6459 10.6326L42.3672 11.7056L42.0441 12.7575C41.1376 15.5464 39.9065 18.1723 38.5666 20.7228C37.213 23.2702 35.7354 25.7347 34.175 28.1463L33.7019 28.8601L34.0096 28.4134C34.1214 28.3697 34.2347 28.3304 34.3588 28.3063C34.8855 28.2021 35.4046 28.2806 35.8548 28.4949C37.7444 25.4238 44.2078 21.5302 46.0958 21.6509C46.7956 21.6947 47.3131 21.9271 47.6332 22.3376C48.1798 23.0393 47.97 24.0761 47.9011 24.4187C47.8414 24.7115 47.673 24.9575 47.4142 25.128C46.9318 25.4449 46.2168 25.4449 45.7084 25.3408C44.9826 25.1914 44.5569 24.9152 44.6717 23.9992C44.7085 23.7064 44.8662 23.471 45.125 23.3261C45.5246 23.0997 46.1126 23.1314 46.4602 23.2763L46.2581 23.7441C46.056 23.6566 45.6425 23.6188 45.3807 23.7667C45.2628 23.8347 45.1985 23.9282 45.1816 24.0656C45.1127 24.5998 45.2138 24.7266 45.8125 24.8488C46.2014 24.9318 46.7787 24.9424 47.1309 24.71C47.2779 24.6164 47.3652 24.4896 47.3973 24.3236C47.4555 24.0399 47.6316 23.1676 47.2274 22.6485C47.0023 22.3602 46.6103 22.1942 46.0636 22.1595C44.3532 22.0508 38.0307 25.9475 36.2897 28.7681C36.3264 28.7983 36.3632 28.8239 36.3969 28.8541C39.4946 27.606 46.7328 26.3278 48.2625 27.7569C48.7724 28.2308 49.0189 28.7334 48.999 29.2525C48.9669 30.0433 48.3283 30.6409 47.8537 31.0228C47.7113 31.1344 47.552 31.2114 47.3805 31.2431C47.2641 31.2672 47.1432 31.2748 47.0191 31.2597C46.4418 31.1963 45.8921 30.7466 45.5706 30.3482C45.1081 29.7777 44.9611 29.2948 45.6441 28.6655C45.863 28.4617 46.1356 28.3817 46.4281 28.433C46.8844 28.5115 47.3147 28.9054 47.4877 29.2344L47.0314 29.4653C46.9318 29.2736 46.6333 28.9794 46.3408 28.9296C46.206 28.9054 46.0973 28.9401 45.9932 29.0337C45.5935 29.4019 45.5905 29.5619 45.9702 30.0358C46.2168 30.3391 46.6532 30.7134 47.0743 30.7586C47.2488 30.7783 47.3989 30.733 47.5306 30.6289C47.7603 30.4447 48.4585 29.8894 48.4845 29.2329C48.4998 28.8677 48.3069 28.4949 47.9103 28.1237C46.7052 26.9993 39.9784 28.018 36.7674 29.251C36.9496 29.5045 37.0859 29.7973 37.1533 30.1233C37.4182 31.3849 36.5959 32.6164 35.3173 32.8775C34.7155 32.9997 34.126 32.879 33.636 32.5938L33.6498 32.6074C33.6498 32.6074 31.5566 35.4038 29.2474 38.487C26.9383 41.5702 18.7538 44.2324 17.7554 43.348C17.5778 43.1895 18.4031 41.7604 20.9236 39.8785C20.5423 40.0052 20.1625 40.1305 19.7813 40.2618C18.5517 40.6481 17.3251 41.0405 16.0833 41.4057C14.8323 41.7392 13.6088 42.1256 12.321 42.4138C11.0409 42.687 9.72707 43.0477 8.46379 43.1941L7.50982 43.3374L7.03207 43.4023L6.79473 43.434L6.73347 43.4431L6.70285 43.4461L6.61863 43.4536L6.47929 43.4582C5.74582 43.4914 4.98479 43.3888 4.25132 43.1745C3.51785 42.9511 2.79663 42.598 2.19485 42.0939C1.58848 41.5959 1.10154 40.9726 0.753948 40.2995C0.0556984 38.9322 -0.112743 37.4201 0.0664139 35.9984ZM9.71022 26.9646C9.29526 26.9812 8.85273 27.0401 8.40254 27.1291C7.95082 27.2136 7.48532 27.3344 7.02441 27.4928L6.71051 27.597L6.34301 27.7524L6.08117 27.8837L5.79635 28.0527C5.12413 28.4859 4.56063 29.1107 4.1181 29.7913C4.40445 29.6162 4.69844 29.4487 5.00929 29.3038C5.60801 29.0201 6.33076 28.7575 7.04892 28.6307C7.76554 28.4738 8.4791 28.4542 9.18195 28.4481C10.583 28.4798 11.9305 28.7213 13.2321 29.0563C13.9518 29.245 14.6546 29.4668 15.3498 29.7113C15.2671 29.6404 15.1844 29.5679 15.1018 29.497C14.4142 28.8843 13.7313 28.2595 13.0805 27.5924C12.8294 27.3555 12.5951 27.0959 12.3562 26.8364C12.2322 26.8635 12.0974 26.8937 11.9627 26.9269C12.1219 26.8952 12.3302 26.8499 11.3839 27.0658C11.2262 27.0114 11.0577 26.9873 10.8786 26.9767C10.5172 26.9526 10.1252 26.936 9.71022 26.9646ZM34.1015 15.8995C34.322 14.7601 34.5379 13.6132 34.6329 12.4662C34.7385 11.3253 34.7936 10.1813 34.7309 9.06156C34.6574 7.9312 34.4813 6.88838 34.1 5.84404C33.7355 4.83291 33.2164 3.89724 32.4983 3.26792C31.7954 2.62502 30.9303 2.38657 30.0207 2.54504C29.105 2.70651 28.197 3.26792 27.4145 3.98326C26.6259 4.70614 25.9629 5.60711 25.3979 6.56391C24.8344 7.52826 24.3704 8.56203 23.9953 9.63202C23.2572 11.7811 22.8621 14.0584 22.7105 16.3538L22.5926 18.1723L21.0782 17.1053L19.9972 16.3462L18.8931 15.6324C18.1474 15.1887 17.3925 14.7571 16.6146 14.4206C15.8429 14.0629 15.0482 13.8003 14.2764 13.666C13.5062 13.5347 12.7605 13.5603 12.174 13.8048C11.6013 14.0629 11.1465 14.5217 10.8633 15.1827C10.5693 15.8301 10.4376 16.6149 10.4269 17.4147C10.4008 19.0189 10.7928 20.6971 11.4849 22.1761C11.5263 22.2712 11.5799 22.3587 11.6228 22.4508L11.6932 22.5866L11.7269 22.6545L11.7468 22.6892L11.7514 22.7013L12.099 23.24C12.2215 23.4257 12.3394 23.6294 12.4634 23.7999L12.8447 24.2738L13.2183 24.7507L13.6547 25.2291C13.9472 25.5491 14.2274 25.8765 14.5505 26.1784C15.163 26.8017 15.8138 27.3993 16.4738 27.9894C17.146 28.5689 17.8151 29.1529 18.5164 29.7053C19.9022 30.8266 21.3385 31.9011 22.8009 32.9394C23.6293 33.5279 24.4684 34.1029 25.3152 34.6689C25.8527 35.0069 26.3886 35.3585 26.9245 35.7192C26.9291 35.7132 26.9429 35.7026 26.9429 35.7026C26.9429 35.7026 28.6794 34.4138 28.6503 34.3836C28.6503 34.3836 28.8754 34.2282 29.1663 34.0335C29.5124 32.7643 29.8584 31.4091 30.2091 30.656C30.3408 30.3783 30.4587 30.0961 30.598 29.826L30.6669 29.6162C31.3897 27.351 32.0542 25.0722 32.6453 22.7873C32.9439 21.6449 33.2027 20.4934 33.4477 19.3449L34.1015 15.8995ZM32.8168 31.7849C32.6836 31.5645 32.5764 31.3246 32.5213 31.062C32.4952 30.9458 32.4922 30.8296 32.4891 30.7164C32.46 30.7602 32.434 30.8085 32.4034 30.8522C32.1737 31.1314 31.8965 31.3774 31.6454 31.6385C31.2993 31.9856 30.9502 32.5364 30.5949 33.1431C31.6668 32.4232 32.7938 31.7637 32.7938 31.7637L32.8168 31.7849ZM2.58379 39.3638C3.05235 40.2754 3.84401 40.95 4.84544 41.2126C5.3431 41.3438 5.87291 41.4057 6.42416 41.3831L8.27851 41.2805C9.5862 41.2503 10.7806 41.0254 12.0347 40.882C13.278 40.7251 14.5429 40.458 15.8 40.2482C17.0541 40.0022 18.3067 39.7306 19.5608 39.465L22.5099 38.7723C23.026 38.4221 24.1423 37.663 25.1314 36.9794C24.8221 36.7772 24.5098 36.5749 24.2035 36.3727C23.7855 36.1086 23.3629 35.8475 22.9402 35.594C21.8576 34.9511 20.7551 34.3399 19.6373 33.7694C17.4002 32.6315 15.0834 31.6355 12.7099 31.0107C11.5278 30.7043 10.3243 30.493 9.15744 30.4689C8.57863 30.4795 7.99676 30.4945 7.45623 30.6153C6.90804 30.7119 6.41497 30.8899 5.85607 31.151C4.89904 31.6068 3.9757 32.3418 3.33563 33.2291C2.6726 34.1135 2.26223 35.1759 2.10604 36.258C1.96363 37.3401 2.1091 38.4538 2.58379 39.3638Z" fill="#EFD6B8"/>
<path d="M18.4062 23.7094C20.4228 20.0588 24.0825 24.3251 24.0825 24.3251C24.0825 24.3251 24.7655 17.5852 28.4129 18.5964C32.0619 19.6075 26.5907 33.4827 26.5907 33.4827C26.5907 33.4827 16.3849 27.3585 18.4062 23.7094Z" fill="#EFD6B8"/>
<path d="M13.5659 33.7649C17.2991 32.7523 22.9969 36.9658 22.9969 36.9658C22.9969 36.9658 16.7831 39.4936 14.1034 39.1013C11.4267 38.7089 9.83119 34.7745 13.5659 33.7649Z" fill="#EFD6B8"/>
</svg>
