<svg width="30" height="30" viewBox="0 0 30 30" fill="none" xmlns="http://www.w3.org/2000/svg">
<path d="M24.9195 10.5998C24.9195 13.1895 29.9999 14.5563 29.9999 21.3182C29.9999 24.6992 27.5512 27.2889 22.9668 27.2889C18.3823 27.2889 15.9336 24.6992 15.9336 21.3182C15.9336 14.5563 21.0141 13.1896 21.0141 10.5998H24.9195Z" fill="#FAB3CE"/>
<path d="M26.2018 12.988C25.4667 12.1678 24.9197 11.4497 24.9197 10.5999H21.0144C21.0144 11.8788 19.7753 12.8598 18.521 14.3393C21.0416 14.1431 23.9407 13.7539 26.2018 12.988Z" fill="#E683A7"/>
<path d="M27.1735 10.5998C23.2891 12.8209 13.335 12.7219 13.335 12.7219L14.5309 10.5998L16.3832 9.45176L27.1735 10.5998Z" fill="#FA9E25"/>
<path d="M14.5306 10.5998H27.1733C27.1733 10.5998 22.9694 8.30373 14.1191 8.30373L14.5306 10.5998Z" fill="#FFB641"/>
<path d="M6.33257 23.7422C6.57251 25.3557 6.25933 26.7876 5.34696 28.2483H9.25991C10.863 24.1338 9.18145 20.5397 8.0176 18.053C7.60311 17.1674 7.08725 16.0652 7.11046 15.6184C7.16067 14.6513 6.41741 13.8267 5.45038 13.7764C4.48288 13.7265 3.65859 14.4694 3.60837 15.4365C3.5397 16.7583 4.14292 18.0472 4.84148 19.5397C5.43644 20.811 6.11091 22.252 6.33257 23.7422Z" fill="#F5F5F5"/>
<path d="M8.0176 18.053C7.60311 17.1674 7.08725 16.0653 7.11046 15.6185C7.16067 14.6514 6.41741 13.8267 5.45038 13.7764C4.48288 13.7266 3.65858 14.4694 3.60837 15.4366C3.54942 16.5717 3.98606 17.6825 4.55284 18.9188C5.40989 19.1771 6.32108 19.3166 7.26567 19.3166C7.70372 19.3166 8.13432 19.286 8.55596 19.2281C8.37344 18.8135 8.18987 18.421 8.0176 18.053Z" fill="#D9D9D9"/>
<path d="M8.51918 3.79687L8.51941 3.79675C6.84469 3.38425 5.63795 2.37603 5.09865 1.84992C4.91953 1.67525 4.62006 1.74333 4.53311 1.97794C4.40109 2.33437 4.30734 2.89101 4.52689 3.62273C4.61039 3.90093 4.47018 4.1966 4.19906 4.30089C2.97158 4.7731 0 6.35466 0 10.5998C0 14.4138 3.25283 17.5056 7.26551 17.5056C11.2782 17.5056 14.531 14.4138 14.531 10.5998C14.5309 7.19226 11.9343 4.36148 8.51918 3.79687Z" fill="#F5F5F5"/>
<path d="M12.1382 9.89953C11.8882 9.89953 11.6855 9.69686 11.6855 9.44684V8.6543C11.6855 8.40428 11.8882 8.2016 12.1382 8.2016C12.3883 8.2016 12.5909 8.40428 12.5909 8.6543V9.44678C12.5909 9.69686 12.3883 9.89953 12.1382 9.89953Z" fill="#38484A"/>
<path d="M23.5601 10.5998C23.558 9.44379 22.5729 7.6575 20.9186 7.61801C20.6928 7.61262 20.5328 7.83762 20.6152 8.04785C20.8671 8.69051 21.2904 9.95467 21.0142 10.5998H23.5601Z" fill="#E683A7"/>
<path d="M22.374 10.5998C22.3761 9.44379 23.3611 7.6575 25.0155 7.61801C25.2413 7.61262 25.4013 7.83762 25.3189 8.04785C25.067 8.69051 24.6437 9.95467 24.9199 10.5998H22.374Z" fill="#FAB3CE"/>
</svg>
