<svg width="30" height="30" viewBox="0 0 30 30" fill="none" xmlns="http://www.w3.org/2000/svg">
<path d="M11.0321 21.5625H9.84375C9.71943 21.5625 9.6002 21.5131 9.51229 21.4252C9.42439 21.3373 9.375 21.2181 9.375 21.0938C9.375 20.9694 9.42439 20.8502 9.51229 20.7623C9.6002 20.6744 9.71943 20.625 9.84375 20.625H10.5304L12.2662 18.0213C12.3001 17.9694 12.3439 17.9247 12.3951 17.8899C12.4463 17.855 12.5039 17.8307 12.5646 17.8182C12.6253 17.8058 12.6879 17.8055 12.7487 17.8174C12.8095 17.8292 12.8673 17.8531 12.9188 17.8874C12.9704 17.9218 13.0146 17.966 13.0489 18.0176C13.0833 18.0691 13.1071 18.127 13.1189 18.1878C13.1308 18.2486 13.1304 18.3111 13.118 18.3718C13.1055 18.4325 13.0811 18.4901 13.0462 18.5413L11.0321 21.5625Z" fill="#525252"/>
<path d="M7.75084 21.5625H6.5625C6.43818 21.5625 6.31895 21.5131 6.23104 21.4252C6.14314 21.3373 6.09375 21.2181 6.09375 21.0938C6.09375 20.9694 6.14314 20.8502 6.23104 20.7623C6.31895 20.6744 6.43818 20.625 6.5625 20.625H7.24916L8.985 18.0213C9.01885 17.9694 9.06265 17.9247 9.11386 17.8899C9.16508 17.855 9.22269 17.8307 9.28338 17.8182C9.34406 17.8058 9.40661 17.8055 9.46741 17.8174C9.52821 17.8292 9.58605 17.8531 9.63759 17.8874C9.68913 17.9218 9.73335 17.966 9.76769 18.0176C9.80204 18.0691 9.82582 18.127 9.83767 18.1878C9.84951 18.2486 9.84919 18.3111 9.83672 18.3718C9.82424 18.4325 9.79987 18.4901 9.765 18.5413L7.75084 21.5625Z" fill="#525252"/>
<path d="M26.7188 27.1875C28.5309 27.1875 30 25.7184 30 23.9062C30 22.0941 28.5309 20.625 26.7188 20.625C24.9066 20.625 23.4375 22.0941 23.4375 23.9062C23.4375 25.7184 24.9066 27.1875 26.7188 27.1875Z" fill="#FFE7DE"/>
<path d="M18.7248 26.5848L17.2813 26.1772C17.1676 26.1451 17.0613 26.0908 16.9685 26.0176C16.8757 25.9444 16.7983 25.8537 16.7406 25.7505C16.6829 25.6474 16.646 25.5339 16.6322 25.4166C16.6183 25.2992 16.6277 25.1802 16.6599 25.0665C16.692 24.9528 16.7462 24.8465 16.8194 24.7537C16.8926 24.6609 16.9833 24.5834 17.0865 24.5257C17.1896 24.468 17.3031 24.4312 17.4205 24.4173C17.5378 24.4035 17.6568 24.4129 17.7705 24.445L19.214 24.8527L18.7248 26.5848Z" fill="#FFE7DE"/>
<path d="M19.1985 24.3409L17.755 23.9333C17.6412 23.9011 17.5349 23.8469 17.4421 23.7737C17.3494 23.7005 17.2719 23.6098 17.2142 23.5066C17.1565 23.4035 17.1197 23.29 17.1058 23.1726C17.092 23.0553 17.1014 22.9363 17.1335 22.8226C17.1656 22.7089 17.2198 22.6026 17.293 22.5098C17.3662 22.417 17.457 22.3395 17.5601 22.2818C17.6632 22.2241 17.7767 22.1873 17.8941 22.1734C18.0115 22.1596 18.1304 22.169 18.2442 22.2011L19.6876 22.6088L19.1985 24.3409Z" fill="#FFE7DE"/>
<path d="M23.4616 30C21.4796 30.007 19.5531 29.3458 17.9932 28.1232L17.7588 27.9405L22.1492 8.4375H24.7742L29.1645 27.9405L28.9301 28.1232C27.3701 29.3458 25.4436 30.007 23.4616 30Z" fill="#F8BBD0"/>
<path d="M24.772 6.5625H22.1028L21.6597 3.9041C21.6373 3.7698 21.6445 3.63223 21.6807 3.50096C21.7168 3.3697 21.7811 3.24789 21.8692 3.144C21.9572 3.04011 22.0668 2.95664 22.1903 2.8994C22.3138 2.84215 22.4484 2.81249 22.5845 2.8125H24.2903C24.4265 2.81249 24.561 2.84215 24.6845 2.8994C24.808 2.95664 24.9176 3.04011 25.0056 3.144C25.0937 3.24789 25.158 3.3697 25.1942 3.50096C25.2303 3.63223 25.2375 3.7698 25.2151 3.9041L24.772 6.5625Z" fill="#F8BBD0"/>
<path d="M30 9.375H19.6875V5.625H26.7188C27.5887 5.62599 28.4227 5.97201 29.0378 6.58715C29.653 7.20229 29.999 8.03631 30 8.90625V9.375Z" fill="#C9B28F"/>
<path d="M13.5938 18.75H10.7812C9.16565 18.7482 7.61674 18.1056 6.47434 16.9632C5.33194 15.8208 4.68933 14.2719 4.6875 12.6562V12.1875H6.01758C2.46949 10.5555 0 6.9668 0 2.8125V0H10.3125C11.3067 0.00111661 12.2599 0.396563 12.9629 1.09958C13.6659 1.8026 14.0614 2.75578 14.0625 3.75V12.6562C14.0625 12.7806 14.1119 12.8998 14.1998 12.9877C14.2877 13.0756 14.4069 13.125 14.5312 13.125C14.6556 13.125 14.7748 13.0756 14.8627 12.9877C14.9506 12.8998 15 12.7806 15 12.6562V7.54834C15 5.71775 16.4675 4.22408 18.2714 4.21875H18.2812C19.1328 4.21851 19.9511 4.54935 20.5633 5.14135C21.1754 5.73336 21.5334 6.54015 21.5616 7.39125C21.5898 8.24235 21.2861 9.07109 20.7145 9.70234C20.1429 10.3336 19.3483 10.7179 18.4986 10.7741L18.486 10.775C18.3044 10.7857 18.1337 10.8652 18.0086 10.9972C17.8836 11.1292 17.8134 11.304 17.8125 11.4858V14.5312C17.8112 15.6497 17.3664 16.7221 16.5755 17.513C15.7846 18.3039 14.7122 18.7487 13.5938 18.75Z" fill="#EDEDED"/>
<path d="M9.375 3.28124C9.375 3.40556 9.32561 3.52479 9.23771 3.6127C9.1498 3.70061 9.03057 3.74999 8.90625 3.74999H3.6709C2.30232 3.74608 0.987774 3.21543 0 2.26816L0 0.803314C0.395675 1.41788 0.938842 1.92367 1.58001 2.2746C2.22118 2.62553 2.93998 2.81044 3.6709 2.81249H8.90625C9.03057 2.81249 9.1498 2.86188 9.23771 2.94979C9.32561 3.0377 9.375 3.15692 9.375 3.28124Z" fill="#D6D5D4"/>
<path d="M9.3751 6.09374C9.3751 6.21806 9.32571 6.33728 9.2378 6.42519C9.1499 6.5131 9.03067 6.56249 8.90635 6.56249H4.40811C2.90562 6.5658 1.44584 6.06276 0.264355 5.13456V5.13397C0.148774 4.63527 0.0710136 4.12856 0.0317383 3.61815C0.572605 4.24933 1.24399 4.75564 1.99956 5.10211C2.75513 5.44859 3.57689 5.62698 4.40811 5.62499H8.90635C9.03067 5.62499 9.1499 5.67437 9.2378 5.76228C9.32571 5.85019 9.3751 5.96942 9.3751 6.09374Z" fill="#D6D5D4"/>
<path d="M9.3751 8.90624C9.3751 9.03056 9.32571 9.14979 9.2378 9.2377C9.1499 9.32561 9.03067 9.37499 8.90635 9.37499H4.21885C3.434 9.37423 2.65974 9.19384 1.95537 8.84765C1.46206 8.1673 1.05413 7.42897 0.740723 6.64922C0.780113 6.67726 0.814903 6.71126 0.843848 6.75C1.23796 7.27272 1.74775 7.6971 2.33329 7.98987C2.91882 8.28263 3.5642 8.43584 4.21885 8.43749H8.90635C9.03067 8.43749 9.1499 8.48688 9.2378 8.57479C9.32571 8.6627 9.3751 8.78192 9.3751 8.90624Z" fill="#D6D5D4"/>
<path d="M9.37523 11.7188C9.37523 11.5944 9.32585 11.4752 9.23794 11.3873C9.15003 11.2994 9.0308 11.25 8.90648 11.25H4.39014C4.90306 11.6113 5.44788 11.9251 6.01781 12.1875H8.90648C9.0308 12.1875 9.15003 12.1381 9.23794 12.0502C9.32585 11.9623 9.37523 11.8431 9.37523 11.7188Z" fill="#D6D5D4"/>
<path d="M18.2812 7.5C18.5401 7.5 18.75 7.29013 18.75 7.03125C18.75 6.77237 18.5401 6.5625 18.2812 6.5625C18.0224 6.5625 17.8125 6.77237 17.8125 7.03125C17.8125 7.29013 18.0224 7.5 18.2812 7.5Z" fill="#525252"/>
<path d="M9.37473 16.4063C8.10155 16.4072 6.83455 16.2294 5.61084 15.8779C6.15796 16.7561 6.91966 17.4806 7.82419 17.9831C8.72871 18.4856 9.74626 18.7495 10.781 18.75H13.5935C14.712 18.7487 15.7843 18.3039 16.5752 17.513C17.3661 16.7221 17.811 15.6497 17.8122 14.5313V13.4707C15.413 15.3759 12.4384 16.4108 9.37473 16.4063Z" fill="#E3E3E3"/>
<path d="M11.4844 3.75C12.1316 3.75 12.6562 3.22533 12.6562 2.57812C12.6562 1.93092 12.1316 1.40625 11.4844 1.40625C10.8372 1.40625 10.3125 1.93092 10.3125 2.57812C10.3125 3.22533 10.8372 3.75 11.4844 3.75Z" fill="white"/>
<path d="M12.4219 6.09375C12.8102 6.09375 13.125 5.77895 13.125 5.39062C13.125 5.0023 12.8102 4.6875 12.4219 4.6875C12.0335 4.6875 11.7188 5.0023 11.7188 5.39062C11.7188 5.77895 12.0335 6.09375 12.4219 6.09375Z" fill="white"/>
<path d="M23.2031 15C23.8503 15 24.375 14.4753 24.375 13.8281C24.375 13.1809 23.8503 12.6562 23.2031 12.6562C22.5559 12.6562 22.0312 13.1809 22.0312 13.8281C22.0312 14.4753 22.5559 15 23.2031 15Z" fill="#FCE4EC"/>
<path d="M24.1406 17.3438C24.529 17.3438 24.8438 17.029 24.8438 16.6406C24.8438 16.2523 24.529 15.9375 24.1406 15.9375C23.7523 15.9375 23.4375 16.2523 23.4375 16.6406C23.4375 17.029 23.7523 17.3438 24.1406 17.3438Z" fill="#FCE4EC"/>
<path d="M23.2031 7.5C23.5915 7.5 23.9062 7.1852 23.9062 6.79688C23.9062 6.40855 23.5915 6.09375 23.2031 6.09375C22.8148 6.09375 22.5 6.40855 22.5 6.79688C22.5 7.1852 22.8148 7.5 23.2031 7.5Z" fill="#DBD0C1"/>
<path d="M24.8438 7.96875C25.1026 7.96875 25.3125 7.75888 25.3125 7.5C25.3125 7.24112 25.1026 7.03125 24.8438 7.03125C24.5849 7.03125 24.375 7.24112 24.375 7.5C24.375 7.75888 24.5849 7.96875 24.8438 7.96875Z" fill="#DBD0C1"/>
<path d="M28.1624 5.96057C27.5672 6.99853 26.7085 7.8609 25.673 8.46045C24.6376 9.06001 23.4621 9.3755 22.2656 9.37501H30V8.90626C29.9994 8.29263 29.827 7.69143 29.5022 7.1708C29.1774 6.65017 28.7133 6.23092 28.1624 5.96057Z" fill="#C1A784"/>
<path d="M27.1558 19.0179C26.3666 20.8504 25.1318 22.4565 23.5637 23.6901C21.9956 24.9238 20.144 25.7459 18.1772 26.0817L17.7588 27.9405L17.9932 28.1232C19.5565 29.3396 21.4808 30 23.4616 30C25.4424 30 27.3667 29.3396 28.93 28.1232L29.1644 27.9405L27.1558 19.0179Z" fill="#F4ABC3"/>
</svg>
