<svg width="30" height="30" viewBox="0 0 30 30" fill="none" xmlns="http://www.w3.org/2000/svg">
<path d="M21.0879 22.7196L26.8619 22.2803C26.8619 22.2803 26.8619 19.6443 21.7782 20.7112" fill="#4B6284"/>
<path d="M16.7575 23.2218V24.8535H16.3182C16.1927 24.728 16.1299 24.6653 16.0044 24.5397V23.2218C16.0044 23.0335 16.1927 22.8452 16.381 22.908C16.632 22.9079 16.7575 23.0335 16.7575 23.2218Z" fill="#344A5E"/>
<path d="M15.1882 24.979C13.8074 24.979 12.6777 26.1087 12.6777 27.4895C12.6777 28.8703 13.8074 30 15.1882 30C16.569 30 17.6987 28.8703 17.6987 27.4895C17.6987 26.1087 16.569 24.979 15.1882 24.979ZM15.1882 28.933C14.3723 28.933 13.7447 28.3054 13.7447 27.4895C13.7447 26.6736 14.3724 26.046 15.1882 26.046C16.0041 26.046 16.6317 26.6737 16.6317 27.4895C16.6318 28.2427 16.0041 28.933 15.1882 28.933Z" fill="#425A6B"/>
<path d="M14.5896 29.2388L14.8936 29.3166L15.3601 27.4925L15.0561 27.4147L14.5896 29.2388Z" fill="#425A6B"/>
<path d="M15.104 27.617L16.7451 28.54L16.8989 28.2665L15.2578 27.3435L15.104 27.617Z" fill="#425A6B"/>
<path d="M15.0905 27.3459L15.3149 27.5651L16.6305 26.2181L16.406 25.9989L15.0905 27.3459Z" fill="#425A6B"/>
<path d="M14.1504 25.9375L15.1099 27.5575L15.3798 27.3976L14.4203 25.7776L14.1504 25.9375Z" fill="#425A6B"/>
<path d="M13.3426 27.8094L13.4272 28.1115L15.2402 27.6033L15.1555 27.3012L13.3426 27.8094Z" fill="#425A6B"/>
<path d="M15.5023 24.8535C15.5023 24.8535 16.5692 24.7908 17.2596 25.7322H17.6362C17.3224 24.979 16.5692 24.477 15.7533 24.4142C15.565 24.4142 15.3768 24.4142 15.1885 24.4142C15.314 24.5398 15.5023 24.6653 15.5023 24.8535Z" fill="#425A6B"/>
<path d="M21.0877 20.3975V20.272L18.2634 22.5314C17.6358 23.0335 16.8827 23.3473 16.1295 23.41C16.0667 23.41 16.004 23.41 15.9412 23.41C15.7529 23.41 15.6274 23.5355 15.6274 23.7238C15.6274 23.9121 15.8157 24.0376 16.004 24.0376C16.0668 24.0376 16.1295 24.0376 16.2551 24.0376C17.1337 23.9748 18.0124 23.5983 18.7656 23.0334L22.0919 20.3347H21.0877V20.3975Z" fill="#E8EAE8"/>
<path d="M15.1884 27.9917C15.431 27.9917 15.6277 27.7949 15.6277 27.5523C15.6277 27.3097 15.431 27.113 15.1884 27.113C14.9457 27.113 14.749 27.3097 14.749 27.5523C14.749 27.7949 14.9457 27.9917 15.1884 27.9917Z" fill="#E8EAE8"/>
<path d="M27.4895 23.2218V24.8535H27.0501C26.9246 24.728 26.8618 24.6653 26.7363 24.5397V23.2218C26.7363 23.0335 26.9246 22.8452 27.1129 22.908C27.4267 22.9079 27.4895 23.0335 27.4895 23.2218Z" fill="#344A5E"/>
<path d="M25.9831 24.979C24.6024 24.979 23.4727 26.1087 23.4727 27.4895C23.4727 28.8703 24.6024 30 25.9831 30C27.3639 30 28.4936 28.8703 28.4936 27.4895C28.4936 26.1087 27.3639 24.979 25.9831 24.979ZM25.9831 28.933C25.1672 28.933 24.5396 28.3054 24.5396 27.4895C24.5396 26.6736 25.1673 26.046 25.9831 26.046C26.7991 26.046 27.4266 26.6737 27.4266 27.4895C27.4266 28.2427 26.7363 28.933 25.9831 28.933Z" fill="#425A6B"/>
<path d="M25.323 29.2334L25.627 29.3112L26.0935 27.4871L25.7895 27.4093L25.323 29.2334Z" fill="#425A6B"/>
<path d="M25.8921 27.6368L27.5332 28.5598L27.687 28.2863L26.0459 27.3633L25.8921 27.6368Z" fill="#425A6B"/>
<path d="M25.8698 27.3746L26.0942 27.5938L27.4098 26.2468L27.1853 26.0276L25.8698 27.3746Z" fill="#425A6B"/>
<path d="M24.8921 25.9199L25.8516 27.5399L26.1215 27.38L25.1621 25.76L24.8921 25.9199Z" fill="#425A6B"/>
<path d="M24.1043 27.8493L24.189 28.1515L26.0019 27.6433L25.9172 27.3411L24.1043 27.8493Z" fill="#425A6B"/>
<path d="M26.2967 24.8535C26.2967 24.8535 27.3636 24.7908 28.054 25.7322H28.4306C28.1168 24.979 27.3637 24.477 26.5478 24.4142C26.3595 24.4142 26.1712 24.4142 25.9829 24.4142C26.0457 24.5398 26.234 24.6653 26.2967 24.8535Z" fill="#425A6B"/>
<path d="M12.3013 12.8033L18.1381 11.1088L23.0335 11.9874C23.0335 11.9874 23.7238 17.1339 18.5146 17.6987L23.7866 21.9665L23.3473 22.5313L22.7196 22.092C22.6568 22.5941 22.2175 22.5941 21.5899 22.6568C20.5857 22.7196 19.6443 22.4058 19.0167 21.5899L15.1255 16.318C14.749 15.8159 14.0586 15.6903 13.4938 15.9414C13.4938 15.9414 13.18 15.251 13.1172 14.4351C13.1171 13.8703 12.8033 13.2427 12.3013 12.8033Z" fill="#4B6284"/>
<path d="M26.7995 24.1004C26.5485 24.1004 26.2975 24.0376 26.1092 24.0376C25.2305 23.9121 24.4146 23.4728 23.6615 22.8451L11.4857 11.6109C11.3602 11.4853 11.3602 11.2971 11.4857 11.1088C11.6112 10.9833 11.7995 10.9833 11.9878 11.1088L24.2263 22.3431C24.8539 22.9079 25.5443 23.2217 26.2974 23.3473C26.7368 23.41 27.1761 23.4728 27.7409 23.4728C27.9292 23.4728 28.0547 23.5983 28.0547 23.7866C28.0547 23.9748 27.9292 24.1003 27.7409 24.1003C27.3644 24.1004 27.0506 24.1004 26.7995 24.1004Z" fill="#E8EAE8"/>
<path d="M13.0549 13.0544L11.4858 11.6108C11.3603 11.4853 11.3603 11.3598 11.423 11.2343C11.5485 10.9832 11.7996 10.9832 11.9879 11.1088L13.3687 12.364C13.1176 12.5523 13.0549 12.8033 13.0549 13.0544Z" fill="#48B9A5"/>
<path d="M25.9833 27.9289C26.2259 27.9289 26.4226 27.7322 26.4226 27.4895C26.4226 27.2469 26.2259 27.0502 25.9833 27.0502C25.7406 27.0502 25.5439 27.2469 25.5439 27.4895C25.5439 27.7322 25.7406 27.9289 25.9833 27.9289Z" fill="#E8EAE8"/>
<path d="M7.15504 5.33473C6.96676 5.46023 6.96676 5.7113 7.09226 6.33893H4.39355L4.45634 5.77408C4.45634 5.77408 5.39776 4.51887 5.71155 4.45609L5.20941 2.82425C5.20941 2.82425 6.59019 0.502058 7.34332 0.690342L8.09646 1.50626L8.03368 1.75733C8.03368 1.75733 7.9709 1.82011 8.03368 1.88283C8.03368 1.94561 8.09646 2.00833 8.09646 2.07111L8.59853 2.51046C8.59853 2.51046 8.66132 2.57324 8.59853 2.63597C8.53575 2.76147 8.41025 2.82425 8.41025 2.82425C8.41025 2.82425 8.41025 2.94975 8.47303 3.01254C8.53581 3.07532 8.53581 3.20082 8.41025 3.2636C8.41025 3.2636 8.53575 3.32638 8.53575 3.3891C8.53575 3.45183 8.47303 3.51461 8.47303 3.51461C8.47303 3.51461 8.47303 3.64011 8.53581 3.70289C8.66132 3.76567 8.53581 4.14224 8.28475 4.14224C7.97096 4.14224 7.78267 4.45603 7.78267 4.45603L7.15504 5.33473Z" fill="#F5B54C"/>
<path d="M8.53581 28.9958L6.46469 28.8703L5.1467 28.2426C5.1467 28.2426 5.1467 27.3012 4.83291 26.5481C4.51907 25.795 5.64877 26.4226 5.64877 26.4226C5.96256 26.4226 6.27641 26.3598 6.40191 26.7992C6.40191 26.7992 6.52741 27.8661 7.28055 28.1799C7.97096 28.5564 8.53581 28.9958 8.53581 28.9958Z" fill="#FFD15C"/>
<path d="M5.14667 27.8033C5.14667 27.8033 5.08388 27.9288 5.27217 27.9916C5.46045 28.0544 6.21359 28.4937 6.21359 28.4937C6.21359 28.4937 7.4688 28.933 7.78265 28.8075C8.15922 28.682 8.15922 28.6192 7.97093 28.4309C7.97093 28.4309 8.53579 28.7447 8.72407 28.7447C8.91236 28.7447 9.53999 28.7447 9.60272 28.933C9.60272 28.933 9.22615 29.2468 9.03786 29.3095C8.91236 29.3723 8.72407 29.435 8.72407 29.435C8.72407 29.435 7.78265 29.6233 7.28058 29.435C6.65294 29.435 5.14667 29.435 5.14667 29.435L4.70731 29.3096C4.70731 29.3096 4.64453 28.682 4.83282 28.0544C4.8956 27.9916 4.8956 27.8033 5.14667 27.8033Z" fill="#344A5E"/>
<path d="M4.7071 29.0586C4.7071 29.1841 4.64432 29.3096 4.7071 29.3724C4.7071 29.4351 4.76988 29.5607 4.89539 29.5607C4.95817 29.6234 5.08367 29.6234 5.20917 29.6234C5.39746 29.6234 7.34309 29.6234 7.34309 29.6234C7.34309 29.6234 6.33888 29.3096 6.02509 29.2469C5.58574 29.2469 4.7071 29.2469 4.7071 29.0586Z" fill="#CED6E0"/>
<path d="M8.47266 29.6234C8.47266 29.6234 9.28858 29.7489 9.53959 29.3096C9.66509 29.0586 9.47681 28.9959 9.41408 29.0586C9.41408 29.0586 8.97473 29.5606 8.47266 29.6234Z" fill="#CED6E0"/>
<path d="M7.40551 15.3765C7.40551 15.3765 7.02894 16.6945 7.09173 17.3222C7.15451 17.9498 6.52687 21.2761 6.52687 21.2761C6.52687 21.2761 6.71516 21.841 6.21308 22.5941C6.21308 22.5941 6.33859 22.9707 6.21308 23.0962C6.08758 23.2845 6.21308 23.4728 6.21308 23.4728L6.40137 26.8619C6.40137 26.7364 5.0206 26.7991 4.58131 27.1129C4.39302 27.2384 4.33024 26.8619 4.33024 26.8619L3.95361 23.159L5.89924 15.1883L7.40551 15.3765Z" fill="#48B9A5"/>
<path d="M5.20942 29.1213L4.58178 29.4979L2.51065 28.933L1.9458 28.3682L2.07136 28.0544C2.07136 28.0544 2.32243 27.615 2.07136 26.4853L3.51486 26.2343L3.57764 26.7991C3.57764 26.7991 3.51486 27.9288 3.95421 28.2426C4.39356 28.4937 4.83285 28.7447 4.83285 28.7447L5.20942 29.1213Z" fill="#FFD15C"/>
<path d="M2.07119 28.0544C2.07119 28.0544 2.00841 28.1799 2.19669 28.2427C2.38498 28.3682 3.07533 28.8075 3.07533 28.8075C3.07533 28.8075 4.33054 29.2469 4.64439 29.1213C5.02096 28.9958 5.02096 28.933 4.83267 28.7447C4.83267 28.7447 5.39753 29.0585 5.58581 29.0585C5.77409 29.0585 6.40173 29.0585 6.46445 29.2468C6.46445 29.2468 6.08788 29.5606 5.8996 29.6234C5.77409 29.7489 5.58581 29.8117 5.58581 29.8117C5.58581 29.8117 4.64439 29.9999 4.14232 29.8117C3.64024 29.6234 2.13397 29.6234 2.13397 29.6234L1.69462 29.4979C1.69462 29.4979 1.63184 28.8702 1.82012 28.2427C1.82012 28.2427 1.82012 27.9916 2.07119 28.0544Z" fill="#425A6B"/>
<path d="M3.57748 13.6193L3.0754 14.5607C3.0754 14.5607 2.38505 15.8159 3.13819 17.0084C3.13819 17.0084 3.26369 17.8243 3.13819 18.4519C3.0754 19.0167 2.82434 20.6485 2.82434 20.6485C2.82434 20.6485 2.44777 22.092 2.25949 22.4686C2.0712 22.8451 1.82014 24.6025 1.82014 24.979C1.82014 25.3556 1.50635 26.5481 1.50635 26.5481C1.50635 26.5481 2.00842 26.6736 2.1967 26.5481C2.38499 26.4226 3.57748 26.7992 3.57748 26.7992C3.57748 26.7992 3.82854 24.0377 4.14233 23.4728C4.45612 22.9708 4.95825 22.1548 5.08375 21.7155C5.20925 21.2761 6.27624 18.5147 6.59003 17.1967C6.90381 15.8787 7.34316 15.3138 7.34316 15.3138L3.57748 13.6193Z" fill="#67C5B8"/>
<path d="M1.63191 29.3096C1.63191 29.4351 1.56913 29.5606 1.63191 29.6234C1.63191 29.6862 1.69469 29.8117 1.82019 29.8117C1.88297 29.8744 2.00847 29.8744 2.13398 29.8744C2.32226 29.8744 4.26788 29.8744 4.26788 29.8744C4.26788 29.8744 3.26368 29.5606 2.9499 29.4979C2.57333 29.4979 1.63191 29.4979 1.63191 29.3096Z" fill="#E8EAE8"/>
<path d="M5.39746 29.8117C5.39746 29.8117 6.21338 29.9372 6.46438 29.4979C6.58989 29.2469 6.4016 29.1841 6.33888 29.2469C6.33888 29.3096 5.89959 29.8117 5.39746 29.8117Z" fill="#E8EAE8"/>
<path d="M4.58195 5.39747C4.58195 5.39747 4.51917 5.71125 4.95852 5.46025C5.39787 5.20924 5.83716 5.08368 6.21373 5.33474C6.5903 5.58581 6.90409 5.96238 7.15515 6.46445C7.15515 6.46445 6.90409 5.77409 7.02965 5.58581C7.02965 5.58581 7.21793 5.8996 7.34344 6.40173C7.46894 6.90386 7.53172 7.15487 7.53172 7.15487C7.53172 7.15487 7.84551 8.34735 8.0338 8.66114C8.22208 8.91221 8.22208 9.91635 8.22208 9.91635C8.22208 9.91635 8.28486 12.2385 8.22208 12.8661C8.1593 13.4938 7.84551 15.251 7.84551 15.251V16.318C7.84551 16.318 7.90829 16.4435 7.15515 16.318C6.40201 16.1925 4.0171 15.3765 4.0171 15.3765C4.0171 15.3765 4.33088 14.4351 3.95431 14.0585C3.95431 14.0585 3.51496 13.8703 3.07567 14.6862C3.07567 14.6862 2.82461 14.6234 3.01289 14.3096C3.20118 13.9958 3.38946 13.4937 3.38946 13.4937C3.38946 13.4937 3.57774 13.1171 3.64053 13.1171C3.76603 13.1171 3.51502 12.9288 3.51502 12.9288C3.51502 12.9288 3.5778 12.6151 3.70331 12.6151C3.82881 12.6151 3.95437 12.2385 3.95437 12.2385C3.95437 12.2385 3.51502 12.113 3.76609 11.4226C4.01715 10.7322 3.82887 8.91209 3.82887 8.91209C3.82887 8.91209 3.82881 5.71131 4.58195 5.39747Z" fill="#F05640"/>
<path d="M8.28473 4.14226C8.28473 4.14226 6.0881 4.14226 5.33496 2.63599C5.64875 2.07113 6.71573 0.502077 7.40609 0.690362L8.09645 1.50628L8.03367 1.75735C8.03367 1.75735 7.97089 1.82013 8.03367 1.88285C8.03367 1.94563 8.09645 2.00835 8.09645 2.07113L8.59852 2.51048C8.59852 2.51048 8.6613 2.57326 8.59852 2.63599C8.53574 2.76149 8.41024 2.82427 8.41024 2.82427C8.41024 2.82427 8.41024 2.94977 8.47302 3.01256C8.5358 3.07534 8.5358 3.20084 8.41024 3.26362C8.41024 3.26362 8.53574 3.3264 8.53574 3.38912C8.53574 3.45185 8.47302 3.51463 8.47302 3.51463C8.47302 3.51463 8.47302 3.64013 8.5358 3.70291C8.6613 3.76569 8.59852 4.14226 8.28473 4.14226Z" fill="#FFD15C"/>
<path d="M3.20105 7.53138C3.26383 7.40587 3.32656 7.28031 3.51484 7.15481C3.51484 7.28031 3.51484 7.40587 3.45206 7.53138C3.70312 7.4686 3.89141 7.15481 4.01691 6.90374C4.14241 6.65268 4.14241 6.33889 4.2052 6.0251C4.14241 6.21339 4.14241 6.46445 4.26798 6.65274C4.2052 6.46445 4.26798 6.27617 4.39348 6.08788C4.45626 5.96238 4.58176 5.77409 4.58176 5.58581C4.64454 5.39753 4.58176 5.20924 4.64454 5.02096C4.58176 5.14646 4.64454 5.33475 4.70733 5.46031C4.77011 5.64859 4.89561 5.77409 4.95839 5.89966C5.02117 6.02516 5.08389 6.21344 5.02117 6.33901C5.14667 6.2135 5.14668 6.02522 5.08395 5.83693C5.02117 5.71143 4.89567 5.58587 4.89567 5.39758C4.89567 5.27208 4.89567 5.2093 4.83289 5.0838C4.83289 4.95829 4.77011 4.89551 4.70738 4.83273C4.77017 4.76995 4.95845 4.83273 4.95845 4.95823C5.02123 5.08374 4.95845 5.2093 4.95845 5.3348C4.89567 5.39758 4.83295 5.52309 4.77017 5.64859C4.70738 5.77409 4.70738 5.89966 4.77017 6.02516C4.77017 5.83688 4.83295 5.71137 4.89567 5.58581C4.95839 5.46025 5.02117 5.39753 5.08395 5.20924C5.14673 5.08374 5.14673 4.95818 5.08395 4.83267C4.95845 4.70717 4.83289 4.64439 4.70738 4.58161C4.5191 4.4561 4.5191 4.14226 4.6446 3.95397H4.51904C4.51904 3.89119 4.51904 3.76569 4.51904 3.70291C4.20525 3.76569 3.95419 4.07948 3.76591 4.33054C3.51484 4.83261 3.32656 5.39747 3.32656 5.96232C3.32656 6.21339 3.32656 6.46439 3.26378 6.65268C3.20099 6.84096 3.07549 7.09203 2.88721 7.15475C3.01271 7.21753 3.26378 7.09197 3.57756 6.90368C3.32656 7.15481 3.20105 7.34309 3.20105 7.53138Z" fill="#2F4251"/>
<path d="M8.3475 1.50628C8.41028 1.318 8.3475 1.12971 8.28472 1.00421C8.28472 1.25528 8.22194 1.56906 8.03365 1.75735C7.90815 1.38078 7.65708 1.06699 7.34329 0.878708C7.34329 0.941489 7.34329 0.941489 7.34329 1.00421C7.34329 1.44356 7.15501 1.94563 6.77844 2.25942C6.90394 2.57321 6.90394 2.94978 6.84122 3.26362C6.84122 3.01256 6.84122 2.76155 6.71572 2.57327C6.71572 2.69877 6.71572 2.76155 6.71572 2.88706C6.59022 2.63599 6.46465 2.57327 6.27637 2.51049C6.08809 2.51049 5.96258 2.44771 5.7743 2.51049C5.58601 2.69877 5.46051 2.94984 5.52323 3.20084C5.52323 3.45191 5.58601 3.70292 5.64874 3.8912C5.71152 4.14227 5.71152 4.39327 5.52323 4.58156C5.58601 4.51877 5.58601 4.45605 5.58601 4.33049C5.46051 4.51877 5.39773 4.64428 5.27223 4.76984C5.33501 4.58156 5.39773 4.39327 5.27223 4.26777C5.20944 4.07948 4.95844 4.07948 4.77015 4.07948C4.58187 3.57741 4.45637 3.01256 4.26808 2.51043C4.2053 2.25936 4.14258 2.00836 4.14258 1.75729C4.14258 1.4435 4.33086 1.12966 4.51915 0.878649C4.77009 0.627643 5.0211 0.376577 5.33495 0.188293C5.7743 8.28505e-06 6.21359 0.0627894 6.65294 0.125512C7.02951 0.188293 7.46886 0.251015 7.78264 0.439299C7.97093 0.564803 8.15921 0.690365 8.28472 0.941371C8.22194 0.87859 8.22194 0.815868 8.15921 0.815868C8.41022 1.00421 8.473 1.318 8.3475 1.50628Z" fill="#2F4251"/>
<path d="M8.47316 1.38077C8.47316 1.19249 8.41038 1.06698 8.34766 0.941422C8.47316 1.06692 8.47316 1.25521 8.47316 1.38077Z" fill="#2F4251"/>
<path d="M6.40183 0.313798C6.40183 0.313798 5.96248 1.0442e-05 5.5232 0.125514C5.33491 0.125514 5.14663 0.313798 5.08385 0.439302C4.95834 0.627586 5.02107 0.690367 5.02107 0.690367C5.02107 0.690367 4.95829 0.627586 5.02107 0.439302C5.08385 0.251017 5.27213 0.125514 5.52314 0.0627327C5.7742 -4.84027e-05 6.02521 0.0627327 6.15077 0.125514C6.33905 0.188295 6.40183 0.313798 6.40183 0.313798Z" fill="#2F4251"/>
<path d="M6.77836 0.627634C6.77836 0.627634 6.90387 0.502131 6.84115 0.376569C6.77836 0.188284 6.52736 0.125503 6.27629 0.125503C6.02523 0.125503 5.83694 0.313788 5.71144 0.439291C5.58594 0.564794 5.58594 0.690356 5.58594 0.690356C5.58594 0.690356 5.58588 0.564853 5.64866 0.376569C5.77416 0.251065 5.96245 0.0627811 6.21351 0C6.46458 0 6.71558 0.125503 6.84115 0.313788C6.84115 0.43935 6.84115 0.502072 6.77836 0.627634C6.77836 0.564853 6.77836 0.627634 6.77836 0.627634Z" fill="#2F4251"/>
<path d="M4.77001 0.815914C4.77001 0.815914 4.6445 0.878695 4.45622 1.06698C4.33071 1.25526 4.14243 1.56905 4.14243 1.94562C4.14243 2.1339 4.20521 2.25941 4.20521 2.44769C4.26799 2.5732 4.33071 2.69876 4.33071 2.82426C4.33071 3.07533 4.20521 3.20083 4.20521 3.20083C4.20521 3.20083 4.33071 3.07533 4.26799 2.82426C4.26799 2.69876 4.20521 2.5732 4.20521 2.38491C4.14237 2.25941 4.07959 2.07112 4.07959 1.94562C4.07959 1.56905 4.26787 1.25526 4.45616 1.1297C4.64444 0.878636 4.77001 0.815914 4.77001 0.815914Z" fill="#2F4251"/>
<path d="M4.58165 3.51463L4.89544 4.07948C4.95822 4.14226 4.58165 4.33055 4.58165 4.26777L4.20508 3.82842C4.20508 3.76569 4.51887 3.45191 4.58165 3.51463Z" fill="#67C5B8"/>
<path d="M6.40187 2.76148C6.40187 2.76148 6.15081 2.25941 5.83702 2.38491C5.83702 2.38491 5.46045 2.44769 5.46045 2.82426C5.46045 3.13805 5.64873 3.26361 5.64873 3.26361C5.64873 3.26361 5.96252 3.5774 6.21359 3.5774C6.46465 3.5774 6.52737 3.5774 6.52737 3.4519C6.59016 3.32633 6.40187 2.76148 6.40187 2.76148Z" fill="#FFD15C"/>
<path d="M6.8407 0.815914C6.8407 0.815914 6.90348 0.941418 6.96621 1.19248C7.02899 1.44355 6.96621 1.75734 6.77792 2.07112C6.71514 2.19663 6.65242 2.38491 6.58964 2.51047C6.58964 2.63598 6.58964 2.82426 6.58964 2.88704C6.65242 3.13811 6.77792 3.26361 6.77792 3.26361C6.77792 3.26361 6.65242 3.13811 6.58964 2.88704C6.52686 2.76154 6.52686 2.63598 6.52686 2.44769C6.52686 2.32219 6.58964 2.1339 6.71514 2.00834C6.90343 1.69456 6.96621 1.38071 6.90343 1.1297C6.90343 1.0042 6.8407 0.815914 6.8407 0.815914Z" fill="#2F4251"/>
<path d="M12.3011 11.2343C12.3639 11.1088 12.2383 10.9832 12.1128 11.046C12.1756 10.8577 11.9245 10.8577 11.9245 10.8577C11.9873 10.6694 11.7363 10.6694 11.7363 10.6694C11.6108 10.5439 11.4852 10.6694 11.4852 10.6694C11.4852 10.6694 11.2341 10.8577 11.1086 11.046C10.9831 11.2343 10.7321 11.1715 10.7321 11.1715L10.1672 10.8577L9.60235 11.1715L9.41406 11.7991C9.41406 11.7991 10.1044 11.9874 10.5438 12.1757C10.7321 12.3012 10.9203 12.3012 11.0458 12.3012C11.2341 12.2384 11.4224 12.1757 11.6107 12.2384C11.7362 12.3012 11.9245 12.4267 12.05 12.3012C12.1755 12.0501 11.799 11.8619 11.799 11.8619C11.799 11.8619 12.1128 11.6736 12.3638 11.6108C12.6149 11.4853 12.5521 11.7363 12.6776 11.7363C12.7404 11.7363 12.7404 11.6108 12.7404 11.4225C12.6149 11.2343 12.3011 11.2343 12.3011 11.2343Z" fill="#FFD15C"/>
<path d="M5.08398 7.28031C5.08398 6.65268 5.20949 5.96232 5.77434 5.52297C5.89984 5.39747 6.08813 5.33469 6.27641 5.39747C6.5902 5.46025 6.90404 5.77404 7.21783 6.96652C7.21783 6.96652 7.28061 8.5983 7.84546 9.35144C8.41032 10.1674 8.66138 10.1046 8.66138 10.1046L10.5442 10.9832C10.5442 10.9832 10.5442 12.1129 9.91659 12.4267L7.4689 11.4225C7.4689 11.4225 6.90404 11.0459 6.65298 10.7322C6.4647 10.5439 6.08813 9.97902 5.77434 9.47694C5.33505 8.84937 5.08398 8.03345 5.08398 7.28031Z" fill="#F26F5A"/>
</svg>
