<svg width="30" height="30" viewBox="0 0 30 30" fill="none" xmlns="http://www.w3.org/2000/svg">
<g clip-path="url(#clip0)">
<path d="M26.4424 27.5072H3.55758C2.33789 27.5072 1.34912 26.5184 1.34912 25.2987V6.24287C1.34912 5.02318 2.33789 4.03441 3.55758 4.03441H26.4424C27.6621 4.03441 28.6509 5.02318 28.6509 6.24287V25.2987C28.6509 26.5184 27.6621 27.5072 26.4424 27.5072Z" fill="url(#paint0_linear)"/>
<path d="M25.9322 26.9837H4.06803C2.90271 26.9837 1.95801 26.039 1.95801 24.8737V6.66779C1.95801 5.50248 2.90266 4.55777 4.06803 4.55777H25.9321C27.0974 4.55777 28.0421 5.50242 28.0421 6.66779V24.8737C28.0422 26.0391 27.0975 26.9837 25.9322 26.9837Z" fill="url(#paint1_linear)"/>
<path d="M27.1709 10.1983L21.6663 0.664167C21.2997 0.0290692 20.4875 -0.188548 19.8524 0.17819L2.49707 10.1983H27.1709Z" fill="url(#paint2_linear)"/>
<path d="M1.34912 17.8716H28.6509V10.6404C28.6509 9.72773 27.911 8.98787 26.9983 8.98787H3.0017C2.08898 8.98787 1.34912 9.72773 1.34912 10.6404V17.8716Z" fill="url(#paint3_linear)"/>
<path d="M1.34912 15.152V25.2987C1.34912 26.5184 2.33789 27.5072 3.55764 27.5072H26.4424C27.6621 27.5072 28.6509 26.5185 28.6509 25.2988V15.152C28.6509 14.3987 28.0402 13.788 27.2868 13.788H2.71318C1.95984 13.788 1.34912 14.3987 1.34912 15.152Z" fill="url(#paint4_linear)"/>
<path d="M24.5317 9.91857V27.5073H26.4422C27.6619 27.5073 28.6506 26.5185 28.6506 25.2989V14.0375L24.5317 9.91857Z" fill="url(#paint5_linear)"/>
<path d="M22.6697 29.9834L3.50449 27.7576C2.2759 27.6148 1.34912 26.5743 1.34912 25.3374V6.07822C1.34912 6.49213 1.65926 6.84029 2.07029 6.88805L23.2318 9.34582C24.4604 9.48855 25.3872 10.5291 25.3872 11.766V27.5633C25.3872 29.0202 24.117 30.1516 22.6697 29.9834Z" fill="url(#paint6_linear)"/>
<path d="M22.6697 26.1365L3.50449 23.9106C2.2759 23.7679 1.34912 22.7273 1.34912 21.4905V25.3374C1.34912 26.5743 2.2759 27.6149 3.50449 27.7576L22.6697 29.9834C24.117 30.1515 25.3873 29.0203 25.3873 27.5633V23.7163C25.3872 25.1733 24.117 26.3045 22.6697 26.1365Z" fill="url(#paint7_linear)"/>
<path d="M3.0673 9.08003C3.05124 9.08003 3.03495 9.07909 3.01861 9.07734L2.14157 8.98089C1.89935 8.95423 1.72456 8.73638 1.75122 8.49421C1.77788 8.25205 1.99591 8.07744 2.2379 8.10386L3.11493 8.20031C3.35716 8.22697 3.53195 8.44482 3.50529 8.68699C3.48044 8.91286 3.28931 9.08003 3.0673 9.08003Z" fill="url(#paint8_linear)"/>
<path d="M21.0892 28.5299C21.0706 28.5299 21.0518 28.5287 21.0329 28.5264L19.3284 28.3096C19.0867 28.2789 18.9156 28.058 18.9464 27.8163C18.9771 27.5746 19.198 27.4045 19.4397 27.4343L21.1443 27.651C21.3859 27.6817 21.5571 27.9026 21.5263 28.1444C21.4978 28.3672 21.308 28.5299 21.0892 28.5299ZM22.7669 28.3116C22.6015 28.3116 22.4427 28.218 22.3675 28.0583C22.2637 27.8379 22.3582 27.575 22.5786 27.4712C23.0262 27.2603 23.3628 26.9105 23.5022 26.5113C23.5826 26.2814 23.8343 26.1601 24.0642 26.2403C24.2942 26.3206 24.4156 26.5722 24.3352 26.8022C24.1151 27.4326 23.6249 27.9537 22.9547 28.2694C22.8939 28.298 22.83 28.3116 22.7669 28.3116ZM17.6801 28.0965C17.6616 28.0965 17.6427 28.0952 17.6239 28.0929L15.9193 27.8762C15.6777 27.8454 15.5065 27.6246 15.5373 27.3828C15.5681 27.1412 15.7889 26.971 16.0307 27.0008L17.7352 27.2176C17.9769 27.2483 18.148 27.4692 18.1172 27.7109C18.0888 27.9336 17.8988 28.0965 17.6801 28.0965ZM14.2711 27.6629C14.2525 27.6629 14.2337 27.6617 14.2148 27.6594L12.5103 27.4426C12.2686 27.4119 12.0975 27.191 12.1283 26.9493C12.1591 26.7076 12.38 26.5366 12.6217 26.5673L14.3262 26.784C14.5678 26.8147 14.739 27.0356 14.7082 27.2774C14.6798 27.5001 14.4898 27.6629 14.2711 27.6629ZM10.8619 27.2294C10.8434 27.2294 10.8246 27.2282 10.8057 27.2258L9.10105 27.009C8.85935 26.9783 8.68825 26.7574 8.71907 26.5157C8.74983 26.274 8.97079 26.1038 9.21243 26.1337L10.917 26.3505C11.1587 26.3813 11.3298 26.6021 11.299 26.8438C11.2707 27.0667 11.0808 27.2294 10.8619 27.2294ZM7.45286 26.7959C7.43435 26.7959 7.41554 26.7946 7.39661 26.7923L5.692 26.5755C5.4503 26.5447 5.27921 26.3239 5.31003 26.0821C5.34079 25.8404 5.56175 25.6702 5.80339 25.7002L7.508 25.917C7.7497 25.9477 7.92079 26.1686 7.88997 26.4103C7.86161 26.6331 7.67171 26.7959 7.45286 26.7959ZM24.0177 25.3911C23.774 25.3911 23.5766 25.1936 23.5766 24.9499V23.2317C23.5766 22.988 23.774 22.7905 24.0177 22.7905C24.2614 22.7905 24.4589 22.988 24.4589 23.2317V24.9499C24.4589 25.1936 24.2615 25.3911 24.0177 25.3911ZM24.0177 21.9546C23.774 21.9546 23.5766 21.7571 23.5766 21.5135V19.7952C23.5766 19.5515 23.774 19.354 24.0177 19.354C24.2614 19.354 24.4589 19.5515 24.4589 19.7952V21.5135C24.4589 21.7571 24.2615 21.9546 24.0177 21.9546ZM24.0177 18.5181C23.774 18.5181 23.5766 18.3206 23.5766 18.0769V16.3587C23.5766 16.115 23.774 15.9175 24.0177 15.9175C24.2614 15.9175 24.4589 16.115 24.4589 16.3587V18.0769C24.4589 18.3206 24.2615 18.5181 24.0177 18.5181ZM24.0177 15.0816C23.774 15.0816 23.5766 14.8841 23.5766 14.6404V12.9221C23.5766 12.6785 23.774 12.481 24.0177 12.481C24.2614 12.481 24.4589 12.6785 24.4589 12.9221V14.6404C24.4589 14.884 24.2615 15.0816 24.0177 15.0816ZM23.4007 11.8211C23.2918 11.8211 23.1826 11.781 23.0974 11.7002C22.7704 11.3903 22.3166 11.1929 21.8194 11.1442L21.8077 11.143C21.5655 11.1169 21.3902 10.8994 21.4163 10.6571C21.4424 10.4149 21.6599 10.2395 21.9022 10.2657L21.9097 10.2666C22.5968 10.3339 23.2356 10.6157 23.7043 11.0597C23.8812 11.2273 23.8887 11.5065 23.7211 11.6834C23.6343 11.7749 23.5176 11.8211 23.4007 11.8211ZM20.1474 10.9578C20.1314 10.9578 20.1151 10.9569 20.0987 10.9551L18.3908 10.7673C18.1486 10.7406 17.9738 10.5228 18.0004 10.2806C18.0271 10.0385 18.2451 9.86414 18.4871 9.89027L20.1951 10.0781C20.4372 10.1047 20.6121 10.3226 20.5854 10.5647C20.5606 10.7906 20.3694 10.9578 20.1474 10.9578ZM16.7316 10.5822C16.7155 10.5822 16.6992 10.5813 16.6829 10.5795L14.9749 10.3917C14.7327 10.3651 14.5579 10.1472 14.5845 9.90504C14.6111 9.66281 14.8295 9.48832 15.0712 9.51469L16.7792 9.70248C17.0214 9.72914 17.1962 9.94699 17.1696 10.1892C17.1447 10.415 16.9536 10.5822 16.7316 10.5822ZM13.3156 10.2067C13.2995 10.2067 13.2832 10.2057 13.2669 10.204L11.5589 10.0162C11.3168 9.98953 11.1419 9.77168 11.1686 9.52951C11.1952 9.28734 11.4131 9.11285 11.6553 9.13916L13.3632 9.32695C13.6054 9.35361 13.7802 9.57146 13.7536 9.81363C13.7288 10.0395 13.5376 10.2067 13.3156 10.2067ZM9.89962 9.83115C9.88357 9.83115 9.86728 9.83021 9.85093 9.82845L8.14298 9.64066C7.90075 9.614 7.72597 9.39615 7.75263 9.15398C7.77923 8.91187 7.9969 8.73744 8.23931 8.76363L9.94726 8.95142C10.1894 8.97808 10.3643 9.19593 10.3376 9.4381C10.3129 9.66392 10.1217 9.83115 9.89962 9.83115ZM6.48366 9.45556C6.46761 9.45556 6.45132 9.45463 6.43497 9.45287L4.72702 9.26508C4.48485 9.23842 4.31001 9.02056 4.33667 8.7784C4.36333 8.53629 4.58106 8.36191 4.82335 8.38804L6.5313 8.57584C6.77353 8.6025 6.94831 8.82035 6.92165 9.06252C6.89687 9.28834 6.70567 9.45556 6.48366 9.45556Z" fill="url(#paint9_linear)"/>
<path d="M4.03931 26.3617C4.02079 26.3617 4.00204 26.3606 3.98312 26.3582L3.10779 26.2469C2.86609 26.2162 2.69494 25.9953 2.72576 25.7536C2.75646 25.5119 2.97736 25.3409 3.21906 25.3716L4.09439 25.4828C4.33609 25.5135 4.50724 25.7344 4.47642 25.9761C4.44806 26.199 4.2581 26.3617 4.03931 26.3617Z" fill="url(#paint10_linear)"/>
<path d="M20.2484 3.28524L17.4249 4.82169C17.0571 5.02179 16.5967 4.88591 16.3965 4.51812C16.1964 4.15032 16.3323 3.68995 16.7001 3.48979L19.5237 1.95341C19.8915 1.75331 20.3519 1.88919 20.552 2.25698C20.7521 2.62471 20.6162 3.08514 20.2484 3.28524Z" fill="#61DB99"/>
<path d="M25.3871 21.3176L22.5851 18.5156C22.1897 18.0851 21.6224 17.8151 20.9919 17.8151C19.7974 17.8151 18.8291 18.7835 18.8291 19.978C18.8291 20.6085 19.0991 21.1758 19.5296 21.5711L25.3871 27.4287V21.3176H25.3871Z" fill="url(#paint11_linear)"/>
<path d="M20.9914 22.1405C22.1859 22.1405 23.1542 21.1721 23.1542 19.9777C23.1542 18.7832 22.1859 17.8148 20.9914 17.8148C19.7969 17.8148 18.8286 18.7832 18.8286 19.9777C18.8286 21.1721 19.7969 22.1405 20.9914 22.1405Z" fill="url(#paint12_linear)"/>
<path d="M20.9916 21.4703C21.816 21.4703 22.4843 20.802 22.4843 19.9777C22.4843 19.1533 21.816 18.485 20.9916 18.485C20.1673 18.485 19.499 19.1533 19.499 19.9777C19.499 20.802 20.1673 21.4703 20.9916 21.4703Z" fill="url(#paint13_linear)"/>
<path d="M20.4246 19.7195C20.5951 19.7195 20.7334 19.5812 20.7334 19.4106C20.7334 19.2401 20.5951 19.1018 20.4246 19.1018C20.254 19.1018 20.1157 19.2401 20.1157 19.4106C20.1157 19.5812 20.254 19.7195 20.4246 19.7195Z" fill="url(#paint14_linear)"/>
<path d="M21.5588 19.7195C21.7294 19.7195 21.8677 19.5812 21.8677 19.4106C21.8677 19.2401 21.7294 19.1018 21.5588 19.1018C21.3883 19.1018 21.25 19.2401 21.25 19.4106C21.25 19.5812 21.3883 19.7195 21.5588 19.7195Z" fill="url(#paint15_linear)"/>
<path d="M20.4246 20.8542C20.5951 20.8542 20.7334 20.7159 20.7334 20.5453C20.7334 20.3747 20.5951 20.2365 20.4246 20.2365C20.254 20.2365 20.1157 20.3747 20.1157 20.5453C20.1157 20.7159 20.254 20.8542 20.4246 20.8542Z" fill="url(#paint16_linear)"/>
<path d="M21.5588 20.8542C21.7294 20.8542 21.8677 20.7159 21.8677 20.5453C21.8677 20.3747 21.7294 20.2365 21.5588 20.2365C21.3883 20.2365 21.25 20.3747 21.25 20.5453C21.25 20.7159 21.3883 20.8542 21.5588 20.8542Z" fill="url(#paint17_linear)"/>
</g>
<defs>
<linearGradient id="paint0_linear" x1="15.4461" y1="2.68144" x2="15.2867" y2="7.35522" gradientUnits="userSpaceOnUse">
<stop stop-color="#FFB92D"/>
<stop offset="1" stop-color="#F59500"/>
</linearGradient>
<linearGradient id="paint1_linear" x1="16.2105" y1="5.78469" x2="15.7764" y2="9.3652" gradientUnits="userSpaceOnUse">
<stop stop-color="#FFB92D"/>
<stop offset="1" stop-color="#F59500"/>
</linearGradient>
<linearGradient id="paint2_linear" x1="14.8336" y1="5.89056" x2="14.8336" y2="8.61815" gradientUnits="userSpaceOnUse">
<stop stop-color="#A7F3CE"/>
<stop offset="1" stop-color="#61DB99"/>
</linearGradient>
<linearGradient id="paint3_linear" x1="14.9997" y1="10.6122" x2="14.9997" y2="18.2662" gradientUnits="userSpaceOnUse">
<stop stop-color="#FF4C54"/>
<stop offset="1" stop-color="#BE3F45"/>
</linearGradient>
<linearGradient id="paint4_linear" x1="14.9997" y1="16.2956" x2="14.9997" y2="28.1165" gradientUnits="userSpaceOnUse">
<stop stop-color="#FF4C54"/>
<stop offset="1" stop-color="#BE3F45"/>
</linearGradient>
<linearGradient id="paint5_linear" x1="27.0974" y1="18.7132" x2="25.1057" y2="18.7132" gradientUnits="userSpaceOnUse">
<stop stop-color="#BE3F45" stop-opacity="0"/>
<stop offset="1" stop-color="#BE3F45"/>
</linearGradient>
<linearGradient id="paint6_linear" x1="9.28476" y1="16.6685" x2="19.4169" y2="21.3422" gradientUnits="userSpaceOnUse">
<stop stop-color="#FFB92D"/>
<stop offset="1" stop-color="#F59500"/>
</linearGradient>
<linearGradient id="paint7_linear" x1="13.0451" y1="27.0748" x2="12.6263" y2="30.2759" gradientUnits="userSpaceOnUse">
<stop stop-color="#BE3F45" stop-opacity="0"/>
<stop offset="1" stop-color="#BE3F45"/>
</linearGradient>
<linearGradient id="paint8_linear" x1="2.62817" y1="8.10162" x2="2.62817" y2="28.5723" gradientUnits="userSpaceOnUse">
<stop stop-color="#FFF465"/>
<stop offset="1" stop-color="#FFE600"/>
</linearGradient>
<linearGradient id="paint9_linear" x1="14.3962" y1="8.10227" x2="14.3962" y2="28.5301" gradientUnits="userSpaceOnUse">
<stop stop-color="#FFF465"/>
<stop offset="1" stop-color="#FFE600"/>
</linearGradient>
<linearGradient id="paint10_linear" x1="3.60097" y1="8.10113" x2="3.60097" y2="28.5712" gradientUnits="userSpaceOnUse">
<stop stop-color="#FFF465"/>
<stop offset="1" stop-color="#FFE600"/>
</linearGradient>
<linearGradient id="paint11_linear" x1="23.8782" y1="22.8649" x2="17.8171" y2="16.8039" gradientUnits="userSpaceOnUse">
<stop stop-color="#BE3F45" stop-opacity="0"/>
<stop offset="1" stop-color="#BE3F45"/>
</linearGradient>
<linearGradient id="paint12_linear" x1="20.991" y1="18.6203" x2="20.991" y2="21.7479" gradientUnits="userSpaceOnUse">
<stop stop-color="#FF4C54"/>
<stop offset="1" stop-color="#BE3F45"/>
</linearGradient>
<linearGradient id="paint13_linear" x1="20.9912" y1="20.9149" x2="20.9912" y2="18.7567" gradientUnits="userSpaceOnUse">
<stop stop-color="#FF4C54"/>
<stop offset="1" stop-color="#BE3F45"/>
</linearGradient>
<linearGradient id="paint14_linear" x1="17.4969" y1="6.48348" x2="18.1145" y2="9.21107" gradientUnits="userSpaceOnUse">
<stop stop-color="#A7F3CE"/>
<stop offset="1" stop-color="#61DB99"/>
</linearGradient>
<linearGradient id="paint15_linear" x1="18.6311" y1="6.48361" x2="19.2487" y2="9.2112" gradientUnits="userSpaceOnUse">
<stop stop-color="#A7F3CE"/>
<stop offset="1" stop-color="#61DB99"/>
</linearGradient>
<linearGradient id="paint16_linear" x1="17.2525" y1="6.53878" x2="17.8701" y2="9.26638" gradientUnits="userSpaceOnUse">
<stop stop-color="#A7F3CE"/>
<stop offset="1" stop-color="#61DB99"/>
</linearGradient>
<linearGradient id="paint17_linear" x1="18.3867" y1="6.53891" x2="19.0044" y2="9.26651" gradientUnits="userSpaceOnUse">
<stop stop-color="#A7F3CE"/>
<stop offset="1" stop-color="#61DB99"/>
</linearGradient>
<clipPath id="clip0">
<rect width="30" height="30" fill="white"/>
</clipPath>
</defs>
</svg>
